%TF.GenerationSoftware,KiCad,Pcbnew,(5.1.12)-1*%
%TF.CreationDate,2021-12-21T10:33:21-05:00*%
%TF.ProjectId,stylophone,7374796c-6f70-4686-9f6e-652e6b696361,rev?*%
%TF.SameCoordinates,Original*%
%TF.FileFunction,Legend,Top*%
%TF.FilePolarity,Positive*%
%FSLAX46Y46*%
G04 Gerber Fmt 4.6, Leading zero omitted, Abs format (unit mm)*
G04 Created by KiCad (PCBNEW (5.1.12)-1) date 2021-12-21 10:33:21*
%MOMM*%
%LPD*%
G01*
G04 APERTURE LIST*
%ADD10C,0.010000*%
%ADD11C,0.100000*%
G04 APERTURE END LIST*
D10*
%TO.C,LOGO1*%
G36*
X106902172Y-73900194D02*
G01*
X107739543Y-73902559D01*
X108413577Y-73907557D01*
X108944611Y-73916056D01*
X109352984Y-73928919D01*
X109659033Y-73947013D01*
X109883097Y-73971203D01*
X110045514Y-74002354D01*
X110166622Y-74041333D01*
X110261180Y-74085994D01*
X110494916Y-74229936D01*
X110672476Y-74397357D01*
X110801389Y-74616944D01*
X110889183Y-74917380D01*
X110943386Y-75327352D01*
X110971526Y-75875545D01*
X110981132Y-76590645D01*
X110981526Y-76830738D01*
X110980584Y-77488966D01*
X110975752Y-77970677D01*
X110964019Y-78303369D01*
X110942374Y-78514540D01*
X110907806Y-78631688D01*
X110857303Y-78682309D01*
X110787857Y-78693902D01*
X110777510Y-78693976D01*
X110611360Y-78757759D01*
X110573494Y-78846988D01*
X110658538Y-78971600D01*
X110777510Y-79000000D01*
X110847165Y-79008097D01*
X110898852Y-79050015D01*
X110935246Y-79152199D01*
X110959025Y-79341090D01*
X110972862Y-79643133D01*
X110979435Y-80084769D01*
X110981418Y-80692443D01*
X110981526Y-81016250D01*
X110976849Y-81808438D01*
X110958249Y-82424313D01*
X110918868Y-82891454D01*
X110851851Y-83237442D01*
X110750342Y-83489856D01*
X110607484Y-83676278D01*
X110416423Y-83824286D01*
X110261180Y-83914006D01*
X110160655Y-83961125D01*
X110038500Y-83999540D01*
X109874366Y-84030087D01*
X109647902Y-84053603D01*
X109338760Y-84070924D01*
X108926591Y-84082886D01*
X108391044Y-84090325D01*
X107711770Y-84094077D01*
X106868420Y-84094979D01*
X105882716Y-84093936D01*
X104988510Y-84090413D01*
X104152929Y-84083117D01*
X103399188Y-84072548D01*
X102750503Y-84059208D01*
X102230088Y-84043598D01*
X101861160Y-84026219D01*
X101666933Y-84007572D01*
X101647791Y-84002527D01*
X101449843Y-83875897D01*
X101206876Y-83664537D01*
X101137751Y-83594495D01*
X100831727Y-83271407D01*
X100800499Y-81135704D01*
X100769271Y-79000000D01*
X101030017Y-79000000D01*
X101239406Y-78947784D01*
X101290763Y-78846988D01*
X101596787Y-78846988D01*
X101681831Y-78971600D01*
X101800803Y-79000000D01*
X101966953Y-78936218D01*
X102004819Y-78846988D01*
X101999019Y-78838488D01*
X102318897Y-78838488D01*
X102337651Y-78970793D01*
X102372473Y-78972373D01*
X102394836Y-78846988D01*
X102616867Y-78846988D01*
X102701911Y-78971600D01*
X102820883Y-79000000D01*
X102987033Y-78936218D01*
X103003254Y-78897992D01*
X103228916Y-78897992D01*
X103301046Y-79068479D01*
X103432932Y-79102008D01*
X103559192Y-79048589D01*
X103876518Y-79048589D01*
X104021756Y-79277293D01*
X104293074Y-79398028D01*
X104376506Y-79404788D01*
X104480878Y-79373672D01*
X104535211Y-79245071D01*
X104554087Y-78973431D01*
X104554643Y-78897992D01*
X104657028Y-78897992D01*
X104658541Y-79463119D01*
X104666068Y-79855587D01*
X104684086Y-80106751D01*
X104717075Y-80247962D01*
X104769513Y-80310573D01*
X104845880Y-80325936D01*
X104861044Y-80326105D01*
X104941776Y-80315511D01*
X104997843Y-80262826D01*
X105033724Y-80136700D01*
X105053897Y-79905778D01*
X105062841Y-79538709D01*
X105065036Y-79004139D01*
X105065048Y-78948996D01*
X105269076Y-78948996D01*
X105270934Y-79478165D01*
X105280044Y-79836469D01*
X105301708Y-80057050D01*
X105341228Y-80173050D01*
X105403908Y-80217611D01*
X105473092Y-80224097D01*
X105614642Y-80183345D01*
X105671013Y-80025020D01*
X105677108Y-79873089D01*
X105704138Y-79619005D01*
X105770117Y-79465962D01*
X105779116Y-79459036D01*
X105838687Y-79513325D01*
X105873531Y-79749377D01*
X105881124Y-80014060D01*
X105886401Y-80355331D01*
X105915348Y-80540307D01*
X105987639Y-80616669D01*
X106122947Y-80632098D01*
X106136144Y-80632129D01*
X106277480Y-80645088D01*
X106353787Y-80715903D01*
X106385026Y-80892480D01*
X106391159Y-81222724D01*
X106391165Y-81244177D01*
X106398609Y-81586018D01*
X106431309Y-81770731D01*
X106504818Y-81844973D01*
X106595181Y-81856225D01*
X106653151Y-81850272D01*
X106698953Y-81818085D01*
X106734019Y-81738179D01*
X106759781Y-81589064D01*
X106777673Y-81349252D01*
X106789126Y-80997257D01*
X106795573Y-80511589D01*
X106798447Y-79870760D01*
X106799180Y-79053284D01*
X106799186Y-78948996D01*
X107003213Y-78948996D01*
X107006748Y-79881567D01*
X107017184Y-80643058D01*
X107034266Y-81226206D01*
X107057739Y-81623750D01*
X107087349Y-81828425D01*
X107105221Y-81856225D01*
X107159556Y-81949140D01*
X107196394Y-82191867D01*
X107207229Y-82468273D01*
X107214673Y-82810115D01*
X107247373Y-82994828D01*
X107320882Y-83069069D01*
X107411245Y-83080322D01*
X107502259Y-83066892D01*
X107561287Y-83002556D01*
X107595200Y-82851245D01*
X107610867Y-82576889D01*
X107615160Y-82143417D01*
X107615261Y-82009237D01*
X107619952Y-81520121D01*
X107637162Y-81201938D01*
X107671595Y-81021752D01*
X107727956Y-80946630D01*
X107768273Y-80938153D01*
X107825080Y-80842392D01*
X107870560Y-80579469D01*
X107904714Y-80185922D01*
X107927541Y-79698290D01*
X107939043Y-79153113D01*
X107939105Y-78948996D01*
X108125301Y-78948996D01*
X108126722Y-79525690D01*
X108133818Y-79929190D01*
X108150840Y-80190312D01*
X108182039Y-80339872D01*
X108231664Y-80408687D01*
X108303967Y-80427574D01*
X108329317Y-80428113D01*
X108443264Y-80405780D01*
X108504835Y-80307679D01*
X108529583Y-80087152D01*
X108533333Y-79816064D01*
X108548819Y-79490052D01*
X108589273Y-79269028D01*
X108635341Y-79204016D01*
X108699219Y-79113520D01*
X108734748Y-78887448D01*
X108735898Y-78846988D01*
X108941365Y-78846988D01*
X109026409Y-78971600D01*
X109145381Y-79000000D01*
X109311531Y-78936218D01*
X109349397Y-78846988D01*
X109553414Y-78846988D01*
X109608495Y-78982737D01*
X109655422Y-79000000D01*
X109745921Y-78917378D01*
X109757430Y-78846988D01*
X109961446Y-78846988D01*
X110046489Y-78971600D01*
X110165462Y-79000000D01*
X110331611Y-78936218D01*
X110369478Y-78846988D01*
X110284434Y-78722376D01*
X110165462Y-78693976D01*
X109999312Y-78757759D01*
X109961446Y-78846988D01*
X109757430Y-78846988D01*
X109702348Y-78711239D01*
X109655422Y-78693976D01*
X109564922Y-78776598D01*
X109553414Y-78846988D01*
X109349397Y-78846988D01*
X109264354Y-78722376D01*
X109145381Y-78693976D01*
X108979232Y-78757759D01*
X108941365Y-78846988D01*
X108735898Y-78846988D01*
X108737349Y-78795984D01*
X108714725Y-78540473D01*
X108658207Y-78398357D01*
X108635341Y-78387952D01*
X108574506Y-78296778D01*
X108538014Y-78066099D01*
X108533333Y-77928916D01*
X108519985Y-77642055D01*
X108464556Y-77506406D01*
X108343973Y-77470055D01*
X108329317Y-77469880D01*
X108249773Y-77480181D01*
X108194118Y-77531628D01*
X108158101Y-77655038D01*
X108137472Y-77881227D01*
X108127980Y-78241012D01*
X108125375Y-78765210D01*
X108125301Y-78948996D01*
X107939105Y-78948996D01*
X107939217Y-78586929D01*
X107928066Y-78036277D01*
X107905588Y-77537696D01*
X107871784Y-77127725D01*
X107826653Y-76842904D01*
X107770197Y-76719770D01*
X107768273Y-76718935D01*
X107697268Y-76652113D01*
X107651241Y-76494295D01*
X107625614Y-76211572D01*
X107615806Y-75770036D01*
X107615261Y-75585933D01*
X107612717Y-75107268D01*
X107600525Y-74796582D01*
X107571845Y-74617857D01*
X107519837Y-74535075D01*
X107437660Y-74512219D01*
X107411245Y-74511647D01*
X107306934Y-74529717D01*
X107245731Y-74612111D01*
X107216360Y-74801110D01*
X107207549Y-75138991D01*
X107207229Y-75276707D01*
X107194571Y-75662201D01*
X107160309Y-75930893D01*
X107110004Y-76041051D01*
X107105221Y-76041767D01*
X107072499Y-76142524D01*
X107045780Y-76439954D01*
X107025319Y-76926792D01*
X107011370Y-77595777D01*
X107004188Y-78439646D01*
X107003213Y-78948996D01*
X106799186Y-78948996D01*
X106799197Y-78795984D01*
X106798800Y-77926428D01*
X106796654Y-77239400D01*
X106791327Y-76713412D01*
X106781386Y-76326975D01*
X106765399Y-76058603D01*
X106741932Y-75886807D01*
X106709554Y-75790098D01*
X106666832Y-75746990D01*
X106612334Y-75735994D01*
X106595181Y-75735743D01*
X106490870Y-75753813D01*
X106429666Y-75836208D01*
X106400296Y-76025207D01*
X106391485Y-76363087D01*
X106391165Y-76500803D01*
X106387986Y-76889945D01*
X106368902Y-77118051D01*
X106319587Y-77228095D01*
X106225716Y-77263051D01*
X106136144Y-77265864D01*
X105990089Y-77280427D01*
X105914039Y-77357402D01*
X105885302Y-77546712D01*
X105881124Y-77826908D01*
X105864355Y-78134155D01*
X105821097Y-78337940D01*
X105779116Y-78387952D01*
X105711692Y-78298279D01*
X105677989Y-78077779D01*
X105677108Y-78030924D01*
X105654287Y-77784853D01*
X105565194Y-77685566D01*
X105473092Y-77673896D01*
X105388425Y-77685509D01*
X105331097Y-77742444D01*
X105295804Y-77877842D01*
X105277244Y-78124846D01*
X105270114Y-78516597D01*
X105269076Y-78948996D01*
X105065048Y-78948996D01*
X105065060Y-78897992D01*
X105063547Y-78332866D01*
X105056020Y-77940397D01*
X105038002Y-77689234D01*
X105005014Y-77548023D01*
X104952575Y-77485412D01*
X104876208Y-77470048D01*
X104861044Y-77469880D01*
X104780312Y-77480474D01*
X104724245Y-77533158D01*
X104688364Y-77659285D01*
X104668191Y-77890206D01*
X104659247Y-78257275D01*
X104657052Y-78791845D01*
X104657028Y-78897992D01*
X104554643Y-78897992D01*
X104555020Y-78846988D01*
X104526891Y-78476092D01*
X104437424Y-78296678D01*
X104278996Y-78303411D01*
X104044980Y-78489960D01*
X103877535Y-78767588D01*
X103876518Y-79048589D01*
X103559192Y-79048589D01*
X103603418Y-79029878D01*
X103636948Y-78897992D01*
X103564817Y-78727505D01*
X103432932Y-78693976D01*
X103262445Y-78766107D01*
X103228916Y-78897992D01*
X103003254Y-78897992D01*
X103024899Y-78846988D01*
X102939856Y-78722376D01*
X102820883Y-78693976D01*
X102654734Y-78757759D01*
X102616867Y-78846988D01*
X102394836Y-78846988D01*
X102396824Y-78835846D01*
X102380526Y-78776858D01*
X102335232Y-78738219D01*
X102318897Y-78838488D01*
X101999019Y-78838488D01*
X101919776Y-78722376D01*
X101800803Y-78693976D01*
X101634653Y-78757759D01*
X101596787Y-78846988D01*
X101290763Y-78846988D01*
X101202087Y-78723924D01*
X101035743Y-78693976D01*
X100780723Y-78693976D01*
X100780723Y-76830738D01*
X100786400Y-76062440D01*
X100808451Y-75469280D01*
X100854404Y-75022574D01*
X100931787Y-74693636D01*
X101048128Y-74453781D01*
X101210957Y-74274324D01*
X101427800Y-74126579D01*
X101501069Y-74085994D01*
X101601866Y-74038849D01*
X101724809Y-74000347D01*
X101890238Y-73969622D01*
X102118491Y-73945808D01*
X102429905Y-73928040D01*
X102844820Y-73915453D01*
X103383572Y-73907181D01*
X104066500Y-73902359D01*
X104913943Y-73900120D01*
X105881124Y-73899599D01*
X106902172Y-73900194D01*
G37*
X106902172Y-73900194D02*
X107739543Y-73902559D01*
X108413577Y-73907557D01*
X108944611Y-73916056D01*
X109352984Y-73928919D01*
X109659033Y-73947013D01*
X109883097Y-73971203D01*
X110045514Y-74002354D01*
X110166622Y-74041333D01*
X110261180Y-74085994D01*
X110494916Y-74229936D01*
X110672476Y-74397357D01*
X110801389Y-74616944D01*
X110889183Y-74917380D01*
X110943386Y-75327352D01*
X110971526Y-75875545D01*
X110981132Y-76590645D01*
X110981526Y-76830738D01*
X110980584Y-77488966D01*
X110975752Y-77970677D01*
X110964019Y-78303369D01*
X110942374Y-78514540D01*
X110907806Y-78631688D01*
X110857303Y-78682309D01*
X110787857Y-78693902D01*
X110777510Y-78693976D01*
X110611360Y-78757759D01*
X110573494Y-78846988D01*
X110658538Y-78971600D01*
X110777510Y-79000000D01*
X110847165Y-79008097D01*
X110898852Y-79050015D01*
X110935246Y-79152199D01*
X110959025Y-79341090D01*
X110972862Y-79643133D01*
X110979435Y-80084769D01*
X110981418Y-80692443D01*
X110981526Y-81016250D01*
X110976849Y-81808438D01*
X110958249Y-82424313D01*
X110918868Y-82891454D01*
X110851851Y-83237442D01*
X110750342Y-83489856D01*
X110607484Y-83676278D01*
X110416423Y-83824286D01*
X110261180Y-83914006D01*
X110160655Y-83961125D01*
X110038500Y-83999540D01*
X109874366Y-84030087D01*
X109647902Y-84053603D01*
X109338760Y-84070924D01*
X108926591Y-84082886D01*
X108391044Y-84090325D01*
X107711770Y-84094077D01*
X106868420Y-84094979D01*
X105882716Y-84093936D01*
X104988510Y-84090413D01*
X104152929Y-84083117D01*
X103399188Y-84072548D01*
X102750503Y-84059208D01*
X102230088Y-84043598D01*
X101861160Y-84026219D01*
X101666933Y-84007572D01*
X101647791Y-84002527D01*
X101449843Y-83875897D01*
X101206876Y-83664537D01*
X101137751Y-83594495D01*
X100831727Y-83271407D01*
X100800499Y-81135704D01*
X100769271Y-79000000D01*
X101030017Y-79000000D01*
X101239406Y-78947784D01*
X101290763Y-78846988D01*
X101596787Y-78846988D01*
X101681831Y-78971600D01*
X101800803Y-79000000D01*
X101966953Y-78936218D01*
X102004819Y-78846988D01*
X101999019Y-78838488D01*
X102318897Y-78838488D01*
X102337651Y-78970793D01*
X102372473Y-78972373D01*
X102394836Y-78846988D01*
X102616867Y-78846988D01*
X102701911Y-78971600D01*
X102820883Y-79000000D01*
X102987033Y-78936218D01*
X103003254Y-78897992D01*
X103228916Y-78897992D01*
X103301046Y-79068479D01*
X103432932Y-79102008D01*
X103559192Y-79048589D01*
X103876518Y-79048589D01*
X104021756Y-79277293D01*
X104293074Y-79398028D01*
X104376506Y-79404788D01*
X104480878Y-79373672D01*
X104535211Y-79245071D01*
X104554087Y-78973431D01*
X104554643Y-78897992D01*
X104657028Y-78897992D01*
X104658541Y-79463119D01*
X104666068Y-79855587D01*
X104684086Y-80106751D01*
X104717075Y-80247962D01*
X104769513Y-80310573D01*
X104845880Y-80325936D01*
X104861044Y-80326105D01*
X104941776Y-80315511D01*
X104997843Y-80262826D01*
X105033724Y-80136700D01*
X105053897Y-79905778D01*
X105062841Y-79538709D01*
X105065036Y-79004139D01*
X105065048Y-78948996D01*
X105269076Y-78948996D01*
X105270934Y-79478165D01*
X105280044Y-79836469D01*
X105301708Y-80057050D01*
X105341228Y-80173050D01*
X105403908Y-80217611D01*
X105473092Y-80224097D01*
X105614642Y-80183345D01*
X105671013Y-80025020D01*
X105677108Y-79873089D01*
X105704138Y-79619005D01*
X105770117Y-79465962D01*
X105779116Y-79459036D01*
X105838687Y-79513325D01*
X105873531Y-79749377D01*
X105881124Y-80014060D01*
X105886401Y-80355331D01*
X105915348Y-80540307D01*
X105987639Y-80616669D01*
X106122947Y-80632098D01*
X106136144Y-80632129D01*
X106277480Y-80645088D01*
X106353787Y-80715903D01*
X106385026Y-80892480D01*
X106391159Y-81222724D01*
X106391165Y-81244177D01*
X106398609Y-81586018D01*
X106431309Y-81770731D01*
X106504818Y-81844973D01*
X106595181Y-81856225D01*
X106653151Y-81850272D01*
X106698953Y-81818085D01*
X106734019Y-81738179D01*
X106759781Y-81589064D01*
X106777673Y-81349252D01*
X106789126Y-80997257D01*
X106795573Y-80511589D01*
X106798447Y-79870760D01*
X106799180Y-79053284D01*
X106799186Y-78948996D01*
X107003213Y-78948996D01*
X107006748Y-79881567D01*
X107017184Y-80643058D01*
X107034266Y-81226206D01*
X107057739Y-81623750D01*
X107087349Y-81828425D01*
X107105221Y-81856225D01*
X107159556Y-81949140D01*
X107196394Y-82191867D01*
X107207229Y-82468273D01*
X107214673Y-82810115D01*
X107247373Y-82994828D01*
X107320882Y-83069069D01*
X107411245Y-83080322D01*
X107502259Y-83066892D01*
X107561287Y-83002556D01*
X107595200Y-82851245D01*
X107610867Y-82576889D01*
X107615160Y-82143417D01*
X107615261Y-82009237D01*
X107619952Y-81520121D01*
X107637162Y-81201938D01*
X107671595Y-81021752D01*
X107727956Y-80946630D01*
X107768273Y-80938153D01*
X107825080Y-80842392D01*
X107870560Y-80579469D01*
X107904714Y-80185922D01*
X107927541Y-79698290D01*
X107939043Y-79153113D01*
X107939105Y-78948996D01*
X108125301Y-78948996D01*
X108126722Y-79525690D01*
X108133818Y-79929190D01*
X108150840Y-80190312D01*
X108182039Y-80339872D01*
X108231664Y-80408687D01*
X108303967Y-80427574D01*
X108329317Y-80428113D01*
X108443264Y-80405780D01*
X108504835Y-80307679D01*
X108529583Y-80087152D01*
X108533333Y-79816064D01*
X108548819Y-79490052D01*
X108589273Y-79269028D01*
X108635341Y-79204016D01*
X108699219Y-79113520D01*
X108734748Y-78887448D01*
X108735898Y-78846988D01*
X108941365Y-78846988D01*
X109026409Y-78971600D01*
X109145381Y-79000000D01*
X109311531Y-78936218D01*
X109349397Y-78846988D01*
X109553414Y-78846988D01*
X109608495Y-78982737D01*
X109655422Y-79000000D01*
X109745921Y-78917378D01*
X109757430Y-78846988D01*
X109961446Y-78846988D01*
X110046489Y-78971600D01*
X110165462Y-79000000D01*
X110331611Y-78936218D01*
X110369478Y-78846988D01*
X110284434Y-78722376D01*
X110165462Y-78693976D01*
X109999312Y-78757759D01*
X109961446Y-78846988D01*
X109757430Y-78846988D01*
X109702348Y-78711239D01*
X109655422Y-78693976D01*
X109564922Y-78776598D01*
X109553414Y-78846988D01*
X109349397Y-78846988D01*
X109264354Y-78722376D01*
X109145381Y-78693976D01*
X108979232Y-78757759D01*
X108941365Y-78846988D01*
X108735898Y-78846988D01*
X108737349Y-78795984D01*
X108714725Y-78540473D01*
X108658207Y-78398357D01*
X108635341Y-78387952D01*
X108574506Y-78296778D01*
X108538014Y-78066099D01*
X108533333Y-77928916D01*
X108519985Y-77642055D01*
X108464556Y-77506406D01*
X108343973Y-77470055D01*
X108329317Y-77469880D01*
X108249773Y-77480181D01*
X108194118Y-77531628D01*
X108158101Y-77655038D01*
X108137472Y-77881227D01*
X108127980Y-78241012D01*
X108125375Y-78765210D01*
X108125301Y-78948996D01*
X107939105Y-78948996D01*
X107939217Y-78586929D01*
X107928066Y-78036277D01*
X107905588Y-77537696D01*
X107871784Y-77127725D01*
X107826653Y-76842904D01*
X107770197Y-76719770D01*
X107768273Y-76718935D01*
X107697268Y-76652113D01*
X107651241Y-76494295D01*
X107625614Y-76211572D01*
X107615806Y-75770036D01*
X107615261Y-75585933D01*
X107612717Y-75107268D01*
X107600525Y-74796582D01*
X107571845Y-74617857D01*
X107519837Y-74535075D01*
X107437660Y-74512219D01*
X107411245Y-74511647D01*
X107306934Y-74529717D01*
X107245731Y-74612111D01*
X107216360Y-74801110D01*
X107207549Y-75138991D01*
X107207229Y-75276707D01*
X107194571Y-75662201D01*
X107160309Y-75930893D01*
X107110004Y-76041051D01*
X107105221Y-76041767D01*
X107072499Y-76142524D01*
X107045780Y-76439954D01*
X107025319Y-76926792D01*
X107011370Y-77595777D01*
X107004188Y-78439646D01*
X107003213Y-78948996D01*
X106799186Y-78948996D01*
X106799197Y-78795984D01*
X106798800Y-77926428D01*
X106796654Y-77239400D01*
X106791327Y-76713412D01*
X106781386Y-76326975D01*
X106765399Y-76058603D01*
X106741932Y-75886807D01*
X106709554Y-75790098D01*
X106666832Y-75746990D01*
X106612334Y-75735994D01*
X106595181Y-75735743D01*
X106490870Y-75753813D01*
X106429666Y-75836208D01*
X106400296Y-76025207D01*
X106391485Y-76363087D01*
X106391165Y-76500803D01*
X106387986Y-76889945D01*
X106368902Y-77118051D01*
X106319587Y-77228095D01*
X106225716Y-77263051D01*
X106136144Y-77265864D01*
X105990089Y-77280427D01*
X105914039Y-77357402D01*
X105885302Y-77546712D01*
X105881124Y-77826908D01*
X105864355Y-78134155D01*
X105821097Y-78337940D01*
X105779116Y-78387952D01*
X105711692Y-78298279D01*
X105677989Y-78077779D01*
X105677108Y-78030924D01*
X105654287Y-77784853D01*
X105565194Y-77685566D01*
X105473092Y-77673896D01*
X105388425Y-77685509D01*
X105331097Y-77742444D01*
X105295804Y-77877842D01*
X105277244Y-78124846D01*
X105270114Y-78516597D01*
X105269076Y-78948996D01*
X105065048Y-78948996D01*
X105065060Y-78897992D01*
X105063547Y-78332866D01*
X105056020Y-77940397D01*
X105038002Y-77689234D01*
X105005014Y-77548023D01*
X104952575Y-77485412D01*
X104876208Y-77470048D01*
X104861044Y-77469880D01*
X104780312Y-77480474D01*
X104724245Y-77533158D01*
X104688364Y-77659285D01*
X104668191Y-77890206D01*
X104659247Y-78257275D01*
X104657052Y-78791845D01*
X104657028Y-78897992D01*
X104554643Y-78897992D01*
X104555020Y-78846988D01*
X104526891Y-78476092D01*
X104437424Y-78296678D01*
X104278996Y-78303411D01*
X104044980Y-78489960D01*
X103877535Y-78767588D01*
X103876518Y-79048589D01*
X103559192Y-79048589D01*
X103603418Y-79029878D01*
X103636948Y-78897992D01*
X103564817Y-78727505D01*
X103432932Y-78693976D01*
X103262445Y-78766107D01*
X103228916Y-78897992D01*
X103003254Y-78897992D01*
X103024899Y-78846988D01*
X102939856Y-78722376D01*
X102820883Y-78693976D01*
X102654734Y-78757759D01*
X102616867Y-78846988D01*
X102394836Y-78846988D01*
X102396824Y-78835846D01*
X102380526Y-78776858D01*
X102335232Y-78738219D01*
X102318897Y-78838488D01*
X101999019Y-78838488D01*
X101919776Y-78722376D01*
X101800803Y-78693976D01*
X101634653Y-78757759D01*
X101596787Y-78846988D01*
X101290763Y-78846988D01*
X101202087Y-78723924D01*
X101035743Y-78693976D01*
X100780723Y-78693976D01*
X100780723Y-76830738D01*
X100786400Y-76062440D01*
X100808451Y-75469280D01*
X100854404Y-75022574D01*
X100931787Y-74693636D01*
X101048128Y-74453781D01*
X101210957Y-74274324D01*
X101427800Y-74126579D01*
X101501069Y-74085994D01*
X101601866Y-74038849D01*
X101724809Y-74000347D01*
X101890238Y-73969622D01*
X102118491Y-73945808D01*
X102429905Y-73928040D01*
X102844820Y-73915453D01*
X103383572Y-73907181D01*
X104066500Y-73902359D01*
X104913943Y-73900120D01*
X105881124Y-73899599D01*
X106902172Y-73900194D01*
G36*
X115719675Y-76393336D02*
G01*
X116074527Y-76612238D01*
X116379156Y-76868566D01*
X116055896Y-77157399D01*
X115842781Y-77333553D01*
X115700724Y-77384717D01*
X115554781Y-77328400D01*
X115492649Y-77288987D01*
X115187595Y-77174568D01*
X114805191Y-77141148D01*
X114431902Y-77186522D01*
X114154194Y-77308484D01*
X114136366Y-77323573D01*
X113986465Y-77559230D01*
X113939759Y-77783394D01*
X114040596Y-78060353D01*
X114341195Y-78311417D01*
X114838684Y-78534422D01*
X115010843Y-78590916D01*
X115688519Y-78865898D01*
X116181240Y-79217904D01*
X116494578Y-79651001D01*
X116510538Y-79685815D01*
X116655036Y-80156880D01*
X116652392Y-80457515D01*
X116500967Y-80839878D01*
X116231483Y-81222458D01*
X115908922Y-81519529D01*
X115796132Y-81587125D01*
X115369768Y-81730691D01*
X114877593Y-81793936D01*
X114433480Y-81763175D01*
X114398795Y-81755085D01*
X113921409Y-81605467D01*
X113578304Y-81416942D01*
X113299746Y-81150914D01*
X113293164Y-81143124D01*
X113123124Y-80923577D01*
X113028585Y-80767595D01*
X113021687Y-80741784D01*
X113107371Y-80659178D01*
X113321822Y-80547393D01*
X113414130Y-80508920D01*
X113669268Y-80418794D01*
X113807418Y-80415342D01*
X113897910Y-80502124D01*
X113919036Y-80534845D01*
X114167952Y-80758527D01*
X114519308Y-80864236D01*
X114912585Y-80856749D01*
X115287263Y-80740840D01*
X115582826Y-80521284D01*
X115670273Y-80396654D01*
X115763324Y-80195060D01*
X115739899Y-80058178D01*
X115579648Y-79894983D01*
X115552878Y-79871589D01*
X115314610Y-79717222D01*
X114958948Y-79546362D01*
X114583801Y-79403393D01*
X113963979Y-79135135D01*
X113484649Y-78794747D01*
X113165504Y-78401418D01*
X113026237Y-77974336D01*
X113021687Y-77881248D01*
X113112062Y-77314700D01*
X113370461Y-76849607D01*
X113777791Y-76506120D01*
X114314960Y-76304388D01*
X114549174Y-76269088D01*
X115201000Y-76264265D01*
X115719675Y-76393336D01*
G37*
X115719675Y-76393336D02*
X116074527Y-76612238D01*
X116379156Y-76868566D01*
X116055896Y-77157399D01*
X115842781Y-77333553D01*
X115700724Y-77384717D01*
X115554781Y-77328400D01*
X115492649Y-77288987D01*
X115187595Y-77174568D01*
X114805191Y-77141148D01*
X114431902Y-77186522D01*
X114154194Y-77308484D01*
X114136366Y-77323573D01*
X113986465Y-77559230D01*
X113939759Y-77783394D01*
X114040596Y-78060353D01*
X114341195Y-78311417D01*
X114838684Y-78534422D01*
X115010843Y-78590916D01*
X115688519Y-78865898D01*
X116181240Y-79217904D01*
X116494578Y-79651001D01*
X116510538Y-79685815D01*
X116655036Y-80156880D01*
X116652392Y-80457515D01*
X116500967Y-80839878D01*
X116231483Y-81222458D01*
X115908922Y-81519529D01*
X115796132Y-81587125D01*
X115369768Y-81730691D01*
X114877593Y-81793936D01*
X114433480Y-81763175D01*
X114398795Y-81755085D01*
X113921409Y-81605467D01*
X113578304Y-81416942D01*
X113299746Y-81150914D01*
X113293164Y-81143124D01*
X113123124Y-80923577D01*
X113028585Y-80767595D01*
X113021687Y-80741784D01*
X113107371Y-80659178D01*
X113321822Y-80547393D01*
X113414130Y-80508920D01*
X113669268Y-80418794D01*
X113807418Y-80415342D01*
X113897910Y-80502124D01*
X113919036Y-80534845D01*
X114167952Y-80758527D01*
X114519308Y-80864236D01*
X114912585Y-80856749D01*
X115287263Y-80740840D01*
X115582826Y-80521284D01*
X115670273Y-80396654D01*
X115763324Y-80195060D01*
X115739899Y-80058178D01*
X115579648Y-79894983D01*
X115552878Y-79871589D01*
X115314610Y-79717222D01*
X114958948Y-79546362D01*
X114583801Y-79403393D01*
X113963979Y-79135135D01*
X113484649Y-78794747D01*
X113165504Y-78401418D01*
X113026237Y-77974336D01*
X113021687Y-77881248D01*
X113112062Y-77314700D01*
X113370461Y-76849607D01*
X113777791Y-76506120D01*
X114314960Y-76304388D01*
X114549174Y-76269088D01*
X115201000Y-76264265D01*
X115719675Y-76393336D01*
G36*
X131054530Y-76260952D02*
G01*
X131700284Y-76428244D01*
X132292118Y-76749028D01*
X132799216Y-77218919D01*
X133190763Y-77833532D01*
X133211265Y-77877912D01*
X133386692Y-78482957D01*
X133420674Y-79155244D01*
X133314213Y-79815963D01*
X133181984Y-80176979D01*
X132786431Y-80798005D01*
X132257260Y-81281283D01*
X131624070Y-81611474D01*
X130916457Y-81773237D01*
X130164019Y-81751233D01*
X130149137Y-81748880D01*
X129649829Y-81626246D01*
X129225692Y-81412052D01*
X128805731Y-81066840D01*
X128659246Y-80920832D01*
X128233232Y-80384943D01*
X127986911Y-79820016D01*
X127897484Y-79172125D01*
X127896442Y-79116619D01*
X127904263Y-79000000D01*
X128798929Y-79000000D01*
X128888806Y-79596837D01*
X129137014Y-80102680D01*
X129511414Y-80499446D01*
X129979871Y-80769050D01*
X130510248Y-80893411D01*
X131070407Y-80854444D01*
X131628212Y-80634068D01*
X131664557Y-80612465D01*
X131917951Y-80399441D01*
X132172098Y-80096002D01*
X132262873Y-79956655D01*
X132486015Y-79406125D01*
X132529340Y-78865737D01*
X132416593Y-78359237D01*
X132171519Y-77910369D01*
X131817864Y-77542879D01*
X131379373Y-77280512D01*
X130879790Y-77147012D01*
X130342861Y-77166126D01*
X129792331Y-77361598D01*
X129712422Y-77406203D01*
X129232856Y-77778833D01*
X128934725Y-78237453D01*
X128806190Y-78802714D01*
X128798929Y-79000000D01*
X127904263Y-79000000D01*
X127942042Y-78436709D01*
X128109816Y-77873965D01*
X128420229Y-77368699D01*
X128548616Y-77214408D01*
X129101899Y-76723881D01*
X129724522Y-76404385D01*
X130385671Y-76251538D01*
X131054530Y-76260952D01*
G37*
X131054530Y-76260952D02*
X131700284Y-76428244D01*
X132292118Y-76749028D01*
X132799216Y-77218919D01*
X133190763Y-77833532D01*
X133211265Y-77877912D01*
X133386692Y-78482957D01*
X133420674Y-79155244D01*
X133314213Y-79815963D01*
X133181984Y-80176979D01*
X132786431Y-80798005D01*
X132257260Y-81281283D01*
X131624070Y-81611474D01*
X130916457Y-81773237D01*
X130164019Y-81751233D01*
X130149137Y-81748880D01*
X129649829Y-81626246D01*
X129225692Y-81412052D01*
X128805731Y-81066840D01*
X128659246Y-80920832D01*
X128233232Y-80384943D01*
X127986911Y-79820016D01*
X127897484Y-79172125D01*
X127896442Y-79116619D01*
X127904263Y-79000000D01*
X128798929Y-79000000D01*
X128888806Y-79596837D01*
X129137014Y-80102680D01*
X129511414Y-80499446D01*
X129979871Y-80769050D01*
X130510248Y-80893411D01*
X131070407Y-80854444D01*
X131628212Y-80634068D01*
X131664557Y-80612465D01*
X131917951Y-80399441D01*
X132172098Y-80096002D01*
X132262873Y-79956655D01*
X132486015Y-79406125D01*
X132529340Y-78865737D01*
X132416593Y-78359237D01*
X132171519Y-77910369D01*
X131817864Y-77542879D01*
X131379373Y-77280512D01*
X130879790Y-77147012D01*
X130342861Y-77166126D01*
X129792331Y-77361598D01*
X129712422Y-77406203D01*
X129232856Y-77778833D01*
X128934725Y-78237453D01*
X128806190Y-78802714D01*
X128798929Y-79000000D01*
X127904263Y-79000000D01*
X127942042Y-78436709D01*
X128109816Y-77873965D01*
X128420229Y-77368699D01*
X128548616Y-77214408D01*
X129101899Y-76723881D01*
X129724522Y-76404385D01*
X130385671Y-76251538D01*
X131054530Y-76260952D01*
G36*
X120264257Y-77163856D02*
G01*
X119142169Y-77163856D01*
X119142169Y-81754217D01*
X118224096Y-81754217D01*
X118224096Y-77163856D01*
X117102008Y-77163856D01*
X117102008Y-76245783D01*
X120264257Y-76245783D01*
X120264257Y-77163856D01*
G37*
X120264257Y-77163856D02*
X119142169Y-77163856D01*
X119142169Y-81754217D01*
X118224096Y-81754217D01*
X118224096Y-77163856D01*
X117102008Y-77163856D01*
X117102008Y-76245783D01*
X120264257Y-76245783D01*
X120264257Y-77163856D01*
G36*
X122009593Y-77163856D02*
G01*
X122239002Y-77542498D01*
X122432391Y-77845210D01*
X122565706Y-78035312D01*
X122611697Y-78081928D01*
X122684031Y-77999419D01*
X122833404Y-77776481D01*
X123035950Y-77449999D01*
X123205782Y-77163856D01*
X123741274Y-76245783D01*
X124772762Y-76245783D01*
X124546545Y-76628313D01*
X124407252Y-76866387D01*
X124195319Y-77231656D01*
X123939571Y-77674322D01*
X123669401Y-78143602D01*
X123018474Y-79276361D01*
X123018474Y-81754217D01*
X122202410Y-81754217D01*
X122202410Y-79276361D01*
X121527223Y-78092598D01*
X121256604Y-77619596D01*
X121004438Y-77181469D01*
X120797191Y-76824031D01*
X120661331Y-76593097D01*
X120651835Y-76577309D01*
X120451634Y-76245783D01*
X121466082Y-76245783D01*
X122009593Y-77163856D01*
G37*
X122009593Y-77163856D02*
X122239002Y-77542498D01*
X122432391Y-77845210D01*
X122565706Y-78035312D01*
X122611697Y-78081928D01*
X122684031Y-77999419D01*
X122833404Y-77776481D01*
X123035950Y-77449999D01*
X123205782Y-77163856D01*
X123741274Y-76245783D01*
X124772762Y-76245783D01*
X124546545Y-76628313D01*
X124407252Y-76866387D01*
X124195319Y-77231656D01*
X123939571Y-77674322D01*
X123669401Y-78143602D01*
X123018474Y-79276361D01*
X123018474Y-81754217D01*
X122202410Y-81754217D01*
X122202410Y-79276361D01*
X121527223Y-78092598D01*
X121256604Y-77619596D01*
X121004438Y-77181469D01*
X120797191Y-76824031D01*
X120661331Y-76593097D01*
X120651835Y-76577309D01*
X120451634Y-76245783D01*
X121466082Y-76245783D01*
X122009593Y-77163856D01*
G36*
X125976707Y-80836145D02*
G01*
X127914859Y-80836145D01*
X127914859Y-81754217D01*
X125160642Y-81754217D01*
X125160642Y-76245783D01*
X125976707Y-76245783D01*
X125976707Y-80836145D01*
G37*
X125976707Y-80836145D02*
X127914859Y-80836145D01*
X127914859Y-81754217D01*
X125160642Y-81754217D01*
X125160642Y-76245783D01*
X125976707Y-76245783D01*
X125976707Y-80836145D01*
%TO.C,R3*%
D11*
X140271428Y-78789285D02*
X139985714Y-78989285D01*
X140271428Y-79132142D02*
X139671428Y-79132142D01*
X139671428Y-78903571D01*
X139700000Y-78846428D01*
X139728571Y-78817857D01*
X139785714Y-78789285D01*
X139871428Y-78789285D01*
X139928571Y-78817857D01*
X139957142Y-78846428D01*
X139985714Y-78903571D01*
X139985714Y-79132142D01*
%TO.C,R27*%
X96060714Y-86271428D02*
X95860714Y-85985714D01*
X95717857Y-86271428D02*
X95717857Y-85671428D01*
X95946428Y-85671428D01*
X96003571Y-85700000D01*
X96032142Y-85728571D01*
X96060714Y-85785714D01*
X96060714Y-85871428D01*
X96032142Y-85928571D01*
X96003571Y-85957142D01*
X95946428Y-85985714D01*
X95717857Y-85985714D01*
%TO.C,R26*%
X99716963Y-86271428D02*
X99516963Y-85985714D01*
X99374106Y-86271428D02*
X99374106Y-85671428D01*
X99602677Y-85671428D01*
X99659820Y-85700000D01*
X99688391Y-85728571D01*
X99716963Y-85785714D01*
X99716963Y-85871428D01*
X99688391Y-85928571D01*
X99659820Y-85957142D01*
X99602677Y-85985714D01*
X99374106Y-85985714D01*
%TO.C,R25*%
X103373212Y-86271428D02*
X103173212Y-85985714D01*
X103030355Y-86271428D02*
X103030355Y-85671428D01*
X103258926Y-85671428D01*
X103316069Y-85700000D01*
X103344640Y-85728571D01*
X103373212Y-85785714D01*
X103373212Y-85871428D01*
X103344640Y-85928571D01*
X103316069Y-85957142D01*
X103258926Y-85985714D01*
X103030355Y-85985714D01*
%TO.C,R24*%
X107029461Y-86271428D02*
X106829461Y-85985714D01*
X106686604Y-86271428D02*
X106686604Y-85671428D01*
X106915175Y-85671428D01*
X106972318Y-85700000D01*
X107000889Y-85728571D01*
X107029461Y-85785714D01*
X107029461Y-85871428D01*
X107000889Y-85928571D01*
X106972318Y-85957142D01*
X106915175Y-85985714D01*
X106686604Y-85985714D01*
%TO.C,R23*%
X110685710Y-86271428D02*
X110485710Y-85985714D01*
X110342853Y-86271428D02*
X110342853Y-85671428D01*
X110571424Y-85671428D01*
X110628567Y-85700000D01*
X110657138Y-85728571D01*
X110685710Y-85785714D01*
X110685710Y-85871428D01*
X110657138Y-85928571D01*
X110628567Y-85957142D01*
X110571424Y-85985714D01*
X110342853Y-85985714D01*
%TO.C,R22*%
X114341959Y-86271428D02*
X114141959Y-85985714D01*
X113999102Y-86271428D02*
X113999102Y-85671428D01*
X114227673Y-85671428D01*
X114284816Y-85700000D01*
X114313387Y-85728571D01*
X114341959Y-85785714D01*
X114341959Y-85871428D01*
X114313387Y-85928571D01*
X114284816Y-85957142D01*
X114227673Y-85985714D01*
X113999102Y-85985714D01*
%TO.C,R21*%
X117998208Y-86271428D02*
X117798208Y-85985714D01*
X117655351Y-86271428D02*
X117655351Y-85671428D01*
X117883922Y-85671428D01*
X117941065Y-85700000D01*
X117969636Y-85728571D01*
X117998208Y-85785714D01*
X117998208Y-85871428D01*
X117969636Y-85928571D01*
X117941065Y-85957142D01*
X117883922Y-85985714D01*
X117655351Y-85985714D01*
%TO.C,R20*%
X121654457Y-86271428D02*
X121454457Y-85985714D01*
X121311600Y-86271428D02*
X121311600Y-85671428D01*
X121540171Y-85671428D01*
X121597314Y-85700000D01*
X121625885Y-85728571D01*
X121654457Y-85785714D01*
X121654457Y-85871428D01*
X121625885Y-85928571D01*
X121597314Y-85957142D01*
X121540171Y-85985714D01*
X121311600Y-85985714D01*
%TO.C,R19*%
X125310706Y-86271428D02*
X125110706Y-85985714D01*
X124967849Y-86271428D02*
X124967849Y-85671428D01*
X125196420Y-85671428D01*
X125253563Y-85700000D01*
X125282134Y-85728571D01*
X125310706Y-85785714D01*
X125310706Y-85871428D01*
X125282134Y-85928571D01*
X125253563Y-85957142D01*
X125196420Y-85985714D01*
X124967849Y-85985714D01*
%TO.C,R18*%
X128966955Y-86271428D02*
X128766955Y-85985714D01*
X128624098Y-86271428D02*
X128624098Y-85671428D01*
X128852669Y-85671428D01*
X128909812Y-85700000D01*
X128938383Y-85728571D01*
X128966955Y-85785714D01*
X128966955Y-85871428D01*
X128938383Y-85928571D01*
X128909812Y-85957142D01*
X128852669Y-85985714D01*
X128624098Y-85985714D01*
%TO.C,R17*%
X132623204Y-86271428D02*
X132423204Y-85985714D01*
X132280347Y-86271428D02*
X132280347Y-85671428D01*
X132508918Y-85671428D01*
X132566061Y-85700000D01*
X132594632Y-85728571D01*
X132623204Y-85785714D01*
X132623204Y-85871428D01*
X132594632Y-85928571D01*
X132566061Y-85957142D01*
X132508918Y-85985714D01*
X132280347Y-85985714D01*
%TO.C,R16*%
X136279453Y-86271428D02*
X136079453Y-85985714D01*
X135936596Y-86271428D02*
X135936596Y-85671428D01*
X136165167Y-85671428D01*
X136222310Y-85700000D01*
X136250881Y-85728571D01*
X136279453Y-85785714D01*
X136279453Y-85871428D01*
X136250881Y-85928571D01*
X136222310Y-85957142D01*
X136165167Y-85985714D01*
X135936596Y-85985714D01*
%TO.C,R15*%
X139935702Y-86271428D02*
X139735702Y-85985714D01*
X139592845Y-86271428D02*
X139592845Y-85671428D01*
X139821416Y-85671428D01*
X139878559Y-85700000D01*
X139907130Y-85728571D01*
X139935702Y-85785714D01*
X139935702Y-85871428D01*
X139907130Y-85928571D01*
X139878559Y-85957142D01*
X139821416Y-85985714D01*
X139592845Y-85985714D01*
%TO.C,R14*%
X143591951Y-86271428D02*
X143391951Y-85985714D01*
X143249094Y-86271428D02*
X143249094Y-85671428D01*
X143477665Y-85671428D01*
X143534808Y-85700000D01*
X143563379Y-85728571D01*
X143591951Y-85785714D01*
X143591951Y-85871428D01*
X143563379Y-85928571D01*
X143534808Y-85957142D01*
X143477665Y-85985714D01*
X143249094Y-85985714D01*
%TO.C,R13*%
X147248200Y-86271428D02*
X147048200Y-85985714D01*
X146905343Y-86271428D02*
X146905343Y-85671428D01*
X147133914Y-85671428D01*
X147191057Y-85700000D01*
X147219628Y-85728571D01*
X147248200Y-85785714D01*
X147248200Y-85871428D01*
X147219628Y-85928571D01*
X147191057Y-85957142D01*
X147133914Y-85985714D01*
X146905343Y-85985714D01*
%TO.C,R12*%
X150904449Y-86271428D02*
X150704449Y-85985714D01*
X150561592Y-86271428D02*
X150561592Y-85671428D01*
X150790163Y-85671428D01*
X150847306Y-85700000D01*
X150875877Y-85728571D01*
X150904449Y-85785714D01*
X150904449Y-85871428D01*
X150875877Y-85928571D01*
X150847306Y-85957142D01*
X150790163Y-85985714D01*
X150561592Y-85985714D01*
%TO.C,R11*%
X154560698Y-86271428D02*
X154360698Y-85985714D01*
X154217841Y-86271428D02*
X154217841Y-85671428D01*
X154446412Y-85671428D01*
X154503555Y-85700000D01*
X154532126Y-85728571D01*
X154560698Y-85785714D01*
X154560698Y-85871428D01*
X154532126Y-85928571D01*
X154503555Y-85957142D01*
X154446412Y-85985714D01*
X154217841Y-85985714D01*
%TO.C,R10*%
X158216947Y-86271428D02*
X158016947Y-85985714D01*
X157874090Y-86271428D02*
X157874090Y-85671428D01*
X158102661Y-85671428D01*
X158159804Y-85700000D01*
X158188375Y-85728571D01*
X158216947Y-85785714D01*
X158216947Y-85871428D01*
X158188375Y-85928571D01*
X158159804Y-85957142D01*
X158102661Y-85985714D01*
X157874090Y-85985714D01*
%TO.C,R9*%
X161873196Y-86271428D02*
X161673196Y-85985714D01*
X161530339Y-86271428D02*
X161530339Y-85671428D01*
X161758910Y-85671428D01*
X161816053Y-85700000D01*
X161844624Y-85728571D01*
X161873196Y-85785714D01*
X161873196Y-85871428D01*
X161844624Y-85928571D01*
X161816053Y-85957142D01*
X161758910Y-85985714D01*
X161530339Y-85985714D01*
%TO.C,R8*%
X165529445Y-86271428D02*
X165329445Y-85985714D01*
X165186588Y-86271428D02*
X165186588Y-85671428D01*
X165415159Y-85671428D01*
X165472302Y-85700000D01*
X165500873Y-85728571D01*
X165529445Y-85785714D01*
X165529445Y-85871428D01*
X165500873Y-85928571D01*
X165472302Y-85957142D01*
X165415159Y-85985714D01*
X165186588Y-85985714D01*
%TO.C,R7*%
X169185696Y-86271428D02*
X168985696Y-85985714D01*
X168842839Y-86271428D02*
X168842839Y-85671428D01*
X169071410Y-85671428D01*
X169128553Y-85700000D01*
X169157124Y-85728571D01*
X169185696Y-85785714D01*
X169185696Y-85871428D01*
X169157124Y-85928571D01*
X169128553Y-85957142D01*
X169071410Y-85985714D01*
X168842839Y-85985714D01*
%TO.C,R6*%
X143271428Y-80789285D02*
X142985714Y-80989285D01*
X143271428Y-81132142D02*
X142671428Y-81132142D01*
X142671428Y-80903571D01*
X142700000Y-80846428D01*
X142728571Y-80817857D01*
X142785714Y-80789285D01*
X142871428Y-80789285D01*
X142928571Y-80817857D01*
X142957142Y-80846428D01*
X142985714Y-80903571D01*
X142985714Y-81132142D01*
%TO.C,R5*%
X146271428Y-78789285D02*
X145985714Y-78989285D01*
X146271428Y-79132142D02*
X145671428Y-79132142D01*
X145671428Y-78903571D01*
X145700000Y-78846428D01*
X145728571Y-78817857D01*
X145785714Y-78789285D01*
X145871428Y-78789285D01*
X145928571Y-78817857D01*
X145957142Y-78846428D01*
X145985714Y-78903571D01*
X145985714Y-79132142D01*
%TO.C,R4*%
X146271428Y-74814285D02*
X145985714Y-75014285D01*
X146271428Y-75157142D02*
X145671428Y-75157142D01*
X145671428Y-74928571D01*
X145700000Y-74871428D01*
X145728571Y-74842857D01*
X145785714Y-74814285D01*
X145871428Y-74814285D01*
X145928571Y-74842857D01*
X145957142Y-74871428D01*
X145985714Y-74928571D01*
X145985714Y-75157142D01*
%TO.C,R2*%
X146271428Y-82839285D02*
X145985714Y-83039285D01*
X146271428Y-83182142D02*
X145671428Y-83182142D01*
X145671428Y-82953571D01*
X145700000Y-82896428D01*
X145728571Y-82867857D01*
X145785714Y-82839285D01*
X145871428Y-82839285D01*
X145928571Y-82867857D01*
X145957142Y-82896428D01*
X145985714Y-82953571D01*
X145985714Y-83182142D01*
%TO.C,R1*%
X143271428Y-76839285D02*
X142985714Y-77039285D01*
X143271428Y-77182142D02*
X142671428Y-77182142D01*
X142671428Y-76953571D01*
X142700000Y-76896428D01*
X142728571Y-76867857D01*
X142785714Y-76839285D01*
X142871428Y-76839285D01*
X142928571Y-76867857D01*
X142957142Y-76896428D01*
X142985714Y-76953571D01*
X142985714Y-77182142D01*
%TO.C,C2*%
X152250000Y-78783333D02*
X152283333Y-78816666D01*
X152316666Y-78916666D01*
X152316666Y-78983333D01*
X152283333Y-79083333D01*
X152216666Y-79150000D01*
X152150000Y-79183333D01*
X152016666Y-79216666D01*
X151916666Y-79216666D01*
X151783333Y-79183333D01*
X151716666Y-79150000D01*
X151650000Y-79083333D01*
X151616666Y-78983333D01*
X151616666Y-78916666D01*
X151650000Y-78816666D01*
X151683333Y-78783333D01*
%TO.C,C1*%
X149250000Y-78783333D02*
X149283333Y-78816666D01*
X149316666Y-78916666D01*
X149316666Y-78983333D01*
X149283333Y-79083333D01*
X149216666Y-79150000D01*
X149150000Y-79183333D01*
X149016666Y-79216666D01*
X148916666Y-79216666D01*
X148783333Y-79183333D01*
X148716666Y-79150000D01*
X148650000Y-79083333D01*
X148616666Y-78983333D01*
X148616666Y-78916666D01*
X148650000Y-78816666D01*
X148683333Y-78783333D01*
%TD*%
M02*
