%TF.GenerationSoftware,KiCad,Pcbnew,(5.1.12)-1*%
%TF.CreationDate,2021-12-21T10:33:21-05:00*%
%TF.ProjectId,stylophone,7374796c-6f70-4686-9f6e-652e6b696361,rev?*%
%TF.SameCoordinates,Original*%
%TF.FileFunction,Soldermask,Top*%
%TF.FilePolarity,Negative*%
%FSLAX46Y46*%
G04 Gerber Fmt 4.6, Leading zero omitted, Abs format (unit mm)*
G04 Created by KiCad (PCBNEW (5.1.12)-1) date 2021-12-21 10:33:21*
%MOMM*%
%LPD*%
G01*
G04 APERTURE LIST*
%ADD10C,2.000000*%
%ADD11C,2.800000*%
%ADD12C,0.100000*%
%ADD13O,2.500000X3.000000*%
%ADD14C,2.200000*%
%ADD15C,4.000000*%
G04 APERTURE END LIST*
D10*
%TO.C,LS1*%
X163540000Y-70570000D03*
X158460000Y-70570000D03*
%TD*%
%TO.C,U1*%
G36*
G01*
X159755000Y-80500000D02*
X160055000Y-80500000D01*
G75*
G02*
X160205000Y-80650000I0J-150000D01*
G01*
X160205000Y-82300000D01*
G75*
G02*
X160055000Y-82450000I-150000J0D01*
G01*
X159755000Y-82450000D01*
G75*
G02*
X159605000Y-82300000I0J150000D01*
G01*
X159605000Y-80650000D01*
G75*
G02*
X159755000Y-80500000I150000J0D01*
G01*
G37*
G36*
G01*
X158485000Y-80500000D02*
X158785000Y-80500000D01*
G75*
G02*
X158935000Y-80650000I0J-150000D01*
G01*
X158935000Y-82300000D01*
G75*
G02*
X158785000Y-82450000I-150000J0D01*
G01*
X158485000Y-82450000D01*
G75*
G02*
X158335000Y-82300000I0J150000D01*
G01*
X158335000Y-80650000D01*
G75*
G02*
X158485000Y-80500000I150000J0D01*
G01*
G37*
G36*
G01*
X157215000Y-80500000D02*
X157515000Y-80500000D01*
G75*
G02*
X157665000Y-80650000I0J-150000D01*
G01*
X157665000Y-82300000D01*
G75*
G02*
X157515000Y-82450000I-150000J0D01*
G01*
X157215000Y-82450000D01*
G75*
G02*
X157065000Y-82300000I0J150000D01*
G01*
X157065000Y-80650000D01*
G75*
G02*
X157215000Y-80500000I150000J0D01*
G01*
G37*
G36*
G01*
X155945000Y-80500000D02*
X156245000Y-80500000D01*
G75*
G02*
X156395000Y-80650000I0J-150000D01*
G01*
X156395000Y-82300000D01*
G75*
G02*
X156245000Y-82450000I-150000J0D01*
G01*
X155945000Y-82450000D01*
G75*
G02*
X155795000Y-82300000I0J150000D01*
G01*
X155795000Y-80650000D01*
G75*
G02*
X155945000Y-80500000I150000J0D01*
G01*
G37*
G36*
G01*
X155945000Y-75550000D02*
X156245000Y-75550000D01*
G75*
G02*
X156395000Y-75700000I0J-150000D01*
G01*
X156395000Y-77350000D01*
G75*
G02*
X156245000Y-77500000I-150000J0D01*
G01*
X155945000Y-77500000D01*
G75*
G02*
X155795000Y-77350000I0J150000D01*
G01*
X155795000Y-75700000D01*
G75*
G02*
X155945000Y-75550000I150000J0D01*
G01*
G37*
G36*
G01*
X157215000Y-75550000D02*
X157515000Y-75550000D01*
G75*
G02*
X157665000Y-75700000I0J-150000D01*
G01*
X157665000Y-77350000D01*
G75*
G02*
X157515000Y-77500000I-150000J0D01*
G01*
X157215000Y-77500000D01*
G75*
G02*
X157065000Y-77350000I0J150000D01*
G01*
X157065000Y-75700000D01*
G75*
G02*
X157215000Y-75550000I150000J0D01*
G01*
G37*
G36*
G01*
X158485000Y-75550000D02*
X158785000Y-75550000D01*
G75*
G02*
X158935000Y-75700000I0J-150000D01*
G01*
X158935000Y-77350000D01*
G75*
G02*
X158785000Y-77500000I-150000J0D01*
G01*
X158485000Y-77500000D01*
G75*
G02*
X158335000Y-77350000I0J150000D01*
G01*
X158335000Y-75700000D01*
G75*
G02*
X158485000Y-75550000I150000J0D01*
G01*
G37*
G36*
G01*
X159755000Y-75550000D02*
X160055000Y-75550000D01*
G75*
G02*
X160205000Y-75700000I0J-150000D01*
G01*
X160205000Y-77350000D01*
G75*
G02*
X160055000Y-77500000I-150000J0D01*
G01*
X159755000Y-77500000D01*
G75*
G02*
X159605000Y-77350000I0J150000D01*
G01*
X159605000Y-75700000D01*
G75*
G02*
X159755000Y-75550000I150000J0D01*
G01*
G37*
%TD*%
%TO.C,R3*%
G36*
G01*
X140450001Y-78525000D02*
X139549999Y-78525000D01*
G75*
G02*
X139300000Y-78275001I0J249999D01*
G01*
X139300000Y-77624999D01*
G75*
G02*
X139549999Y-77375000I249999J0D01*
G01*
X140450001Y-77375000D01*
G75*
G02*
X140700000Y-77624999I0J-249999D01*
G01*
X140700000Y-78275001D01*
G75*
G02*
X140450001Y-78525000I-249999J0D01*
G01*
G37*
G36*
G01*
X140450001Y-80575000D02*
X139549999Y-80575000D01*
G75*
G02*
X139300000Y-80325001I0J249999D01*
G01*
X139300000Y-79674999D01*
G75*
G02*
X139549999Y-79425000I249999J0D01*
G01*
X140450001Y-79425000D01*
G75*
G02*
X140700000Y-79674999I0J-249999D01*
G01*
X140700000Y-80325001D01*
G75*
G02*
X140450001Y-80575000I-249999J0D01*
G01*
G37*
%TD*%
%TO.C,R27*%
G36*
G01*
X96325000Y-86450001D02*
X96325000Y-85549999D01*
G75*
G02*
X96574999Y-85300000I249999J0D01*
G01*
X97225001Y-85300000D01*
G75*
G02*
X97475000Y-85549999I0J-249999D01*
G01*
X97475000Y-86450001D01*
G75*
G02*
X97225001Y-86700000I-249999J0D01*
G01*
X96574999Y-86700000D01*
G75*
G02*
X96325000Y-86450001I0J249999D01*
G01*
G37*
G36*
G01*
X94275000Y-86450001D02*
X94275000Y-85549999D01*
G75*
G02*
X94524999Y-85300000I249999J0D01*
G01*
X95175001Y-85300000D01*
G75*
G02*
X95425000Y-85549999I0J-249999D01*
G01*
X95425000Y-86450001D01*
G75*
G02*
X95175001Y-86700000I-249999J0D01*
G01*
X94524999Y-86700000D01*
G75*
G02*
X94275000Y-86450001I0J249999D01*
G01*
G37*
%TD*%
%TO.C,R26*%
G36*
G01*
X99981249Y-86450001D02*
X99981249Y-85549999D01*
G75*
G02*
X100231248Y-85300000I249999J0D01*
G01*
X100881250Y-85300000D01*
G75*
G02*
X101131249Y-85549999I0J-249999D01*
G01*
X101131249Y-86450001D01*
G75*
G02*
X100881250Y-86700000I-249999J0D01*
G01*
X100231248Y-86700000D01*
G75*
G02*
X99981249Y-86450001I0J249999D01*
G01*
G37*
G36*
G01*
X97931249Y-86450001D02*
X97931249Y-85549999D01*
G75*
G02*
X98181248Y-85300000I249999J0D01*
G01*
X98831250Y-85300000D01*
G75*
G02*
X99081249Y-85549999I0J-249999D01*
G01*
X99081249Y-86450001D01*
G75*
G02*
X98831250Y-86700000I-249999J0D01*
G01*
X98181248Y-86700000D01*
G75*
G02*
X97931249Y-86450001I0J249999D01*
G01*
G37*
%TD*%
%TO.C,R25*%
G36*
G01*
X103637498Y-86450001D02*
X103637498Y-85549999D01*
G75*
G02*
X103887497Y-85300000I249999J0D01*
G01*
X104537499Y-85300000D01*
G75*
G02*
X104787498Y-85549999I0J-249999D01*
G01*
X104787498Y-86450001D01*
G75*
G02*
X104537499Y-86700000I-249999J0D01*
G01*
X103887497Y-86700000D01*
G75*
G02*
X103637498Y-86450001I0J249999D01*
G01*
G37*
G36*
G01*
X101587498Y-86450001D02*
X101587498Y-85549999D01*
G75*
G02*
X101837497Y-85300000I249999J0D01*
G01*
X102487499Y-85300000D01*
G75*
G02*
X102737498Y-85549999I0J-249999D01*
G01*
X102737498Y-86450001D01*
G75*
G02*
X102487499Y-86700000I-249999J0D01*
G01*
X101837497Y-86700000D01*
G75*
G02*
X101587498Y-86450001I0J249999D01*
G01*
G37*
%TD*%
%TO.C,R24*%
G36*
G01*
X107293747Y-86450001D02*
X107293747Y-85549999D01*
G75*
G02*
X107543746Y-85300000I249999J0D01*
G01*
X108193748Y-85300000D01*
G75*
G02*
X108443747Y-85549999I0J-249999D01*
G01*
X108443747Y-86450001D01*
G75*
G02*
X108193748Y-86700000I-249999J0D01*
G01*
X107543746Y-86700000D01*
G75*
G02*
X107293747Y-86450001I0J249999D01*
G01*
G37*
G36*
G01*
X105243747Y-86450001D02*
X105243747Y-85549999D01*
G75*
G02*
X105493746Y-85300000I249999J0D01*
G01*
X106143748Y-85300000D01*
G75*
G02*
X106393747Y-85549999I0J-249999D01*
G01*
X106393747Y-86450001D01*
G75*
G02*
X106143748Y-86700000I-249999J0D01*
G01*
X105493746Y-86700000D01*
G75*
G02*
X105243747Y-86450001I0J249999D01*
G01*
G37*
%TD*%
%TO.C,R23*%
G36*
G01*
X110949996Y-86450001D02*
X110949996Y-85549999D01*
G75*
G02*
X111199995Y-85300000I249999J0D01*
G01*
X111849997Y-85300000D01*
G75*
G02*
X112099996Y-85549999I0J-249999D01*
G01*
X112099996Y-86450001D01*
G75*
G02*
X111849997Y-86700000I-249999J0D01*
G01*
X111199995Y-86700000D01*
G75*
G02*
X110949996Y-86450001I0J249999D01*
G01*
G37*
G36*
G01*
X108899996Y-86450001D02*
X108899996Y-85549999D01*
G75*
G02*
X109149995Y-85300000I249999J0D01*
G01*
X109799997Y-85300000D01*
G75*
G02*
X110049996Y-85549999I0J-249999D01*
G01*
X110049996Y-86450001D01*
G75*
G02*
X109799997Y-86700000I-249999J0D01*
G01*
X109149995Y-86700000D01*
G75*
G02*
X108899996Y-86450001I0J249999D01*
G01*
G37*
%TD*%
%TO.C,R22*%
G36*
G01*
X114606245Y-86450001D02*
X114606245Y-85549999D01*
G75*
G02*
X114856244Y-85300000I249999J0D01*
G01*
X115506246Y-85300000D01*
G75*
G02*
X115756245Y-85549999I0J-249999D01*
G01*
X115756245Y-86450001D01*
G75*
G02*
X115506246Y-86700000I-249999J0D01*
G01*
X114856244Y-86700000D01*
G75*
G02*
X114606245Y-86450001I0J249999D01*
G01*
G37*
G36*
G01*
X112556245Y-86450001D02*
X112556245Y-85549999D01*
G75*
G02*
X112806244Y-85300000I249999J0D01*
G01*
X113456246Y-85300000D01*
G75*
G02*
X113706245Y-85549999I0J-249999D01*
G01*
X113706245Y-86450001D01*
G75*
G02*
X113456246Y-86700000I-249999J0D01*
G01*
X112806244Y-86700000D01*
G75*
G02*
X112556245Y-86450001I0J249999D01*
G01*
G37*
%TD*%
%TO.C,R21*%
G36*
G01*
X118262494Y-86450001D02*
X118262494Y-85549999D01*
G75*
G02*
X118512493Y-85300000I249999J0D01*
G01*
X119162495Y-85300000D01*
G75*
G02*
X119412494Y-85549999I0J-249999D01*
G01*
X119412494Y-86450001D01*
G75*
G02*
X119162495Y-86700000I-249999J0D01*
G01*
X118512493Y-86700000D01*
G75*
G02*
X118262494Y-86450001I0J249999D01*
G01*
G37*
G36*
G01*
X116212494Y-86450001D02*
X116212494Y-85549999D01*
G75*
G02*
X116462493Y-85300000I249999J0D01*
G01*
X117112495Y-85300000D01*
G75*
G02*
X117362494Y-85549999I0J-249999D01*
G01*
X117362494Y-86450001D01*
G75*
G02*
X117112495Y-86700000I-249999J0D01*
G01*
X116462493Y-86700000D01*
G75*
G02*
X116212494Y-86450001I0J249999D01*
G01*
G37*
%TD*%
%TO.C,R20*%
G36*
G01*
X121918743Y-86450001D02*
X121918743Y-85549999D01*
G75*
G02*
X122168742Y-85300000I249999J0D01*
G01*
X122818744Y-85300000D01*
G75*
G02*
X123068743Y-85549999I0J-249999D01*
G01*
X123068743Y-86450001D01*
G75*
G02*
X122818744Y-86700000I-249999J0D01*
G01*
X122168742Y-86700000D01*
G75*
G02*
X121918743Y-86450001I0J249999D01*
G01*
G37*
G36*
G01*
X119868743Y-86450001D02*
X119868743Y-85549999D01*
G75*
G02*
X120118742Y-85300000I249999J0D01*
G01*
X120768744Y-85300000D01*
G75*
G02*
X121018743Y-85549999I0J-249999D01*
G01*
X121018743Y-86450001D01*
G75*
G02*
X120768744Y-86700000I-249999J0D01*
G01*
X120118742Y-86700000D01*
G75*
G02*
X119868743Y-86450001I0J249999D01*
G01*
G37*
%TD*%
%TO.C,R19*%
G36*
G01*
X125574992Y-86450001D02*
X125574992Y-85549999D01*
G75*
G02*
X125824991Y-85300000I249999J0D01*
G01*
X126474993Y-85300000D01*
G75*
G02*
X126724992Y-85549999I0J-249999D01*
G01*
X126724992Y-86450001D01*
G75*
G02*
X126474993Y-86700000I-249999J0D01*
G01*
X125824991Y-86700000D01*
G75*
G02*
X125574992Y-86450001I0J249999D01*
G01*
G37*
G36*
G01*
X123524992Y-86450001D02*
X123524992Y-85549999D01*
G75*
G02*
X123774991Y-85300000I249999J0D01*
G01*
X124424993Y-85300000D01*
G75*
G02*
X124674992Y-85549999I0J-249999D01*
G01*
X124674992Y-86450001D01*
G75*
G02*
X124424993Y-86700000I-249999J0D01*
G01*
X123774991Y-86700000D01*
G75*
G02*
X123524992Y-86450001I0J249999D01*
G01*
G37*
%TD*%
%TO.C,R18*%
G36*
G01*
X129231241Y-86450001D02*
X129231241Y-85549999D01*
G75*
G02*
X129481240Y-85300000I249999J0D01*
G01*
X130131242Y-85300000D01*
G75*
G02*
X130381241Y-85549999I0J-249999D01*
G01*
X130381241Y-86450001D01*
G75*
G02*
X130131242Y-86700000I-249999J0D01*
G01*
X129481240Y-86700000D01*
G75*
G02*
X129231241Y-86450001I0J249999D01*
G01*
G37*
G36*
G01*
X127181241Y-86450001D02*
X127181241Y-85549999D01*
G75*
G02*
X127431240Y-85300000I249999J0D01*
G01*
X128081242Y-85300000D01*
G75*
G02*
X128331241Y-85549999I0J-249999D01*
G01*
X128331241Y-86450001D01*
G75*
G02*
X128081242Y-86700000I-249999J0D01*
G01*
X127431240Y-86700000D01*
G75*
G02*
X127181241Y-86450001I0J249999D01*
G01*
G37*
%TD*%
%TO.C,R17*%
G36*
G01*
X132887490Y-86450001D02*
X132887490Y-85549999D01*
G75*
G02*
X133137489Y-85300000I249999J0D01*
G01*
X133787491Y-85300000D01*
G75*
G02*
X134037490Y-85549999I0J-249999D01*
G01*
X134037490Y-86450001D01*
G75*
G02*
X133787491Y-86700000I-249999J0D01*
G01*
X133137489Y-86700000D01*
G75*
G02*
X132887490Y-86450001I0J249999D01*
G01*
G37*
G36*
G01*
X130837490Y-86450001D02*
X130837490Y-85549999D01*
G75*
G02*
X131087489Y-85300000I249999J0D01*
G01*
X131737491Y-85300000D01*
G75*
G02*
X131987490Y-85549999I0J-249999D01*
G01*
X131987490Y-86450001D01*
G75*
G02*
X131737491Y-86700000I-249999J0D01*
G01*
X131087489Y-86700000D01*
G75*
G02*
X130837490Y-86450001I0J249999D01*
G01*
G37*
%TD*%
%TO.C,R16*%
G36*
G01*
X136543739Y-86450001D02*
X136543739Y-85549999D01*
G75*
G02*
X136793738Y-85300000I249999J0D01*
G01*
X137443740Y-85300000D01*
G75*
G02*
X137693739Y-85549999I0J-249999D01*
G01*
X137693739Y-86450001D01*
G75*
G02*
X137443740Y-86700000I-249999J0D01*
G01*
X136793738Y-86700000D01*
G75*
G02*
X136543739Y-86450001I0J249999D01*
G01*
G37*
G36*
G01*
X134493739Y-86450001D02*
X134493739Y-85549999D01*
G75*
G02*
X134743738Y-85300000I249999J0D01*
G01*
X135393740Y-85300000D01*
G75*
G02*
X135643739Y-85549999I0J-249999D01*
G01*
X135643739Y-86450001D01*
G75*
G02*
X135393740Y-86700000I-249999J0D01*
G01*
X134743738Y-86700000D01*
G75*
G02*
X134493739Y-86450001I0J249999D01*
G01*
G37*
%TD*%
%TO.C,R15*%
G36*
G01*
X140199988Y-86450001D02*
X140199988Y-85549999D01*
G75*
G02*
X140449987Y-85300000I249999J0D01*
G01*
X141099989Y-85300000D01*
G75*
G02*
X141349988Y-85549999I0J-249999D01*
G01*
X141349988Y-86450001D01*
G75*
G02*
X141099989Y-86700000I-249999J0D01*
G01*
X140449987Y-86700000D01*
G75*
G02*
X140199988Y-86450001I0J249999D01*
G01*
G37*
G36*
G01*
X138149988Y-86450001D02*
X138149988Y-85549999D01*
G75*
G02*
X138399987Y-85300000I249999J0D01*
G01*
X139049989Y-85300000D01*
G75*
G02*
X139299988Y-85549999I0J-249999D01*
G01*
X139299988Y-86450001D01*
G75*
G02*
X139049989Y-86700000I-249999J0D01*
G01*
X138399987Y-86700000D01*
G75*
G02*
X138149988Y-86450001I0J249999D01*
G01*
G37*
%TD*%
%TO.C,R14*%
G36*
G01*
X143856237Y-86450001D02*
X143856237Y-85549999D01*
G75*
G02*
X144106236Y-85300000I249999J0D01*
G01*
X144756238Y-85300000D01*
G75*
G02*
X145006237Y-85549999I0J-249999D01*
G01*
X145006237Y-86450001D01*
G75*
G02*
X144756238Y-86700000I-249999J0D01*
G01*
X144106236Y-86700000D01*
G75*
G02*
X143856237Y-86450001I0J249999D01*
G01*
G37*
G36*
G01*
X141806237Y-86450001D02*
X141806237Y-85549999D01*
G75*
G02*
X142056236Y-85300000I249999J0D01*
G01*
X142706238Y-85300000D01*
G75*
G02*
X142956237Y-85549999I0J-249999D01*
G01*
X142956237Y-86450001D01*
G75*
G02*
X142706238Y-86700000I-249999J0D01*
G01*
X142056236Y-86700000D01*
G75*
G02*
X141806237Y-86450001I0J249999D01*
G01*
G37*
%TD*%
%TO.C,R13*%
G36*
G01*
X147512486Y-86450001D02*
X147512486Y-85549999D01*
G75*
G02*
X147762485Y-85300000I249999J0D01*
G01*
X148412487Y-85300000D01*
G75*
G02*
X148662486Y-85549999I0J-249999D01*
G01*
X148662486Y-86450001D01*
G75*
G02*
X148412487Y-86700000I-249999J0D01*
G01*
X147762485Y-86700000D01*
G75*
G02*
X147512486Y-86450001I0J249999D01*
G01*
G37*
G36*
G01*
X145462486Y-86450001D02*
X145462486Y-85549999D01*
G75*
G02*
X145712485Y-85300000I249999J0D01*
G01*
X146362487Y-85300000D01*
G75*
G02*
X146612486Y-85549999I0J-249999D01*
G01*
X146612486Y-86450001D01*
G75*
G02*
X146362487Y-86700000I-249999J0D01*
G01*
X145712485Y-86700000D01*
G75*
G02*
X145462486Y-86450001I0J249999D01*
G01*
G37*
%TD*%
%TO.C,R12*%
G36*
G01*
X151168735Y-86450001D02*
X151168735Y-85549999D01*
G75*
G02*
X151418734Y-85300000I249999J0D01*
G01*
X152068736Y-85300000D01*
G75*
G02*
X152318735Y-85549999I0J-249999D01*
G01*
X152318735Y-86450001D01*
G75*
G02*
X152068736Y-86700000I-249999J0D01*
G01*
X151418734Y-86700000D01*
G75*
G02*
X151168735Y-86450001I0J249999D01*
G01*
G37*
G36*
G01*
X149118735Y-86450001D02*
X149118735Y-85549999D01*
G75*
G02*
X149368734Y-85300000I249999J0D01*
G01*
X150018736Y-85300000D01*
G75*
G02*
X150268735Y-85549999I0J-249999D01*
G01*
X150268735Y-86450001D01*
G75*
G02*
X150018736Y-86700000I-249999J0D01*
G01*
X149368734Y-86700000D01*
G75*
G02*
X149118735Y-86450001I0J249999D01*
G01*
G37*
%TD*%
%TO.C,R11*%
G36*
G01*
X154824984Y-86450001D02*
X154824984Y-85549999D01*
G75*
G02*
X155074983Y-85300000I249999J0D01*
G01*
X155724985Y-85300000D01*
G75*
G02*
X155974984Y-85549999I0J-249999D01*
G01*
X155974984Y-86450001D01*
G75*
G02*
X155724985Y-86700000I-249999J0D01*
G01*
X155074983Y-86700000D01*
G75*
G02*
X154824984Y-86450001I0J249999D01*
G01*
G37*
G36*
G01*
X152774984Y-86450001D02*
X152774984Y-85549999D01*
G75*
G02*
X153024983Y-85300000I249999J0D01*
G01*
X153674985Y-85300000D01*
G75*
G02*
X153924984Y-85549999I0J-249999D01*
G01*
X153924984Y-86450001D01*
G75*
G02*
X153674985Y-86700000I-249999J0D01*
G01*
X153024983Y-86700000D01*
G75*
G02*
X152774984Y-86450001I0J249999D01*
G01*
G37*
%TD*%
%TO.C,R10*%
G36*
G01*
X158481233Y-86450001D02*
X158481233Y-85549999D01*
G75*
G02*
X158731232Y-85300000I249999J0D01*
G01*
X159381234Y-85300000D01*
G75*
G02*
X159631233Y-85549999I0J-249999D01*
G01*
X159631233Y-86450001D01*
G75*
G02*
X159381234Y-86700000I-249999J0D01*
G01*
X158731232Y-86700000D01*
G75*
G02*
X158481233Y-86450001I0J249999D01*
G01*
G37*
G36*
G01*
X156431233Y-86450001D02*
X156431233Y-85549999D01*
G75*
G02*
X156681232Y-85300000I249999J0D01*
G01*
X157331234Y-85300000D01*
G75*
G02*
X157581233Y-85549999I0J-249999D01*
G01*
X157581233Y-86450001D01*
G75*
G02*
X157331234Y-86700000I-249999J0D01*
G01*
X156681232Y-86700000D01*
G75*
G02*
X156431233Y-86450001I0J249999D01*
G01*
G37*
%TD*%
%TO.C,R9*%
G36*
G01*
X162137482Y-86450001D02*
X162137482Y-85549999D01*
G75*
G02*
X162387481Y-85300000I249999J0D01*
G01*
X163037483Y-85300000D01*
G75*
G02*
X163287482Y-85549999I0J-249999D01*
G01*
X163287482Y-86450001D01*
G75*
G02*
X163037483Y-86700000I-249999J0D01*
G01*
X162387481Y-86700000D01*
G75*
G02*
X162137482Y-86450001I0J249999D01*
G01*
G37*
G36*
G01*
X160087482Y-86450001D02*
X160087482Y-85549999D01*
G75*
G02*
X160337481Y-85300000I249999J0D01*
G01*
X160987483Y-85300000D01*
G75*
G02*
X161237482Y-85549999I0J-249999D01*
G01*
X161237482Y-86450001D01*
G75*
G02*
X160987483Y-86700000I-249999J0D01*
G01*
X160337481Y-86700000D01*
G75*
G02*
X160087482Y-86450001I0J249999D01*
G01*
G37*
%TD*%
%TO.C,R8*%
G36*
G01*
X165793731Y-86450001D02*
X165793731Y-85549999D01*
G75*
G02*
X166043730Y-85300000I249999J0D01*
G01*
X166693732Y-85300000D01*
G75*
G02*
X166943731Y-85549999I0J-249999D01*
G01*
X166943731Y-86450001D01*
G75*
G02*
X166693732Y-86700000I-249999J0D01*
G01*
X166043730Y-86700000D01*
G75*
G02*
X165793731Y-86450001I0J249999D01*
G01*
G37*
G36*
G01*
X163743731Y-86450001D02*
X163743731Y-85549999D01*
G75*
G02*
X163993730Y-85300000I249999J0D01*
G01*
X164643732Y-85300000D01*
G75*
G02*
X164893731Y-85549999I0J-249999D01*
G01*
X164893731Y-86450001D01*
G75*
G02*
X164643732Y-86700000I-249999J0D01*
G01*
X163993730Y-86700000D01*
G75*
G02*
X163743731Y-86450001I0J249999D01*
G01*
G37*
%TD*%
%TO.C,R7*%
G36*
G01*
X169449982Y-86450001D02*
X169449982Y-85549999D01*
G75*
G02*
X169699981Y-85300000I249999J0D01*
G01*
X170349983Y-85300000D01*
G75*
G02*
X170599982Y-85549999I0J-249999D01*
G01*
X170599982Y-86450001D01*
G75*
G02*
X170349983Y-86700000I-249999J0D01*
G01*
X169699981Y-86700000D01*
G75*
G02*
X169449982Y-86450001I0J249999D01*
G01*
G37*
G36*
G01*
X167399982Y-86450001D02*
X167399982Y-85549999D01*
G75*
G02*
X167649981Y-85300000I249999J0D01*
G01*
X168299983Y-85300000D01*
G75*
G02*
X168549982Y-85549999I0J-249999D01*
G01*
X168549982Y-86450001D01*
G75*
G02*
X168299983Y-86700000I-249999J0D01*
G01*
X167649981Y-86700000D01*
G75*
G02*
X167399982Y-86450001I0J249999D01*
G01*
G37*
%TD*%
%TO.C,R6*%
G36*
G01*
X143450001Y-80525000D02*
X142549999Y-80525000D01*
G75*
G02*
X142300000Y-80275001I0J249999D01*
G01*
X142300000Y-79624999D01*
G75*
G02*
X142549999Y-79375000I249999J0D01*
G01*
X143450001Y-79375000D01*
G75*
G02*
X143700000Y-79624999I0J-249999D01*
G01*
X143700000Y-80275001D01*
G75*
G02*
X143450001Y-80525000I-249999J0D01*
G01*
G37*
G36*
G01*
X143450001Y-82575000D02*
X142549999Y-82575000D01*
G75*
G02*
X142300000Y-82325001I0J249999D01*
G01*
X142300000Y-81674999D01*
G75*
G02*
X142549999Y-81425000I249999J0D01*
G01*
X143450001Y-81425000D01*
G75*
G02*
X143700000Y-81674999I0J-249999D01*
G01*
X143700000Y-82325001D01*
G75*
G02*
X143450001Y-82575000I-249999J0D01*
G01*
G37*
%TD*%
%TO.C,R5*%
G36*
G01*
X146450001Y-78525000D02*
X145549999Y-78525000D01*
G75*
G02*
X145300000Y-78275001I0J249999D01*
G01*
X145300000Y-77624999D01*
G75*
G02*
X145549999Y-77375000I249999J0D01*
G01*
X146450001Y-77375000D01*
G75*
G02*
X146700000Y-77624999I0J-249999D01*
G01*
X146700000Y-78275001D01*
G75*
G02*
X146450001Y-78525000I-249999J0D01*
G01*
G37*
G36*
G01*
X146450001Y-80575000D02*
X145549999Y-80575000D01*
G75*
G02*
X145300000Y-80325001I0J249999D01*
G01*
X145300000Y-79674999D01*
G75*
G02*
X145549999Y-79425000I249999J0D01*
G01*
X146450001Y-79425000D01*
G75*
G02*
X146700000Y-79674999I0J-249999D01*
G01*
X146700000Y-80325001D01*
G75*
G02*
X146450001Y-80575000I-249999J0D01*
G01*
G37*
%TD*%
%TO.C,R4*%
G36*
G01*
X146450001Y-74550000D02*
X145549999Y-74550000D01*
G75*
G02*
X145300000Y-74300001I0J249999D01*
G01*
X145300000Y-73649999D01*
G75*
G02*
X145549999Y-73400000I249999J0D01*
G01*
X146450001Y-73400000D01*
G75*
G02*
X146700000Y-73649999I0J-249999D01*
G01*
X146700000Y-74300001D01*
G75*
G02*
X146450001Y-74550000I-249999J0D01*
G01*
G37*
G36*
G01*
X146450001Y-76600000D02*
X145549999Y-76600000D01*
G75*
G02*
X145300000Y-76350001I0J249999D01*
G01*
X145300000Y-75699999D01*
G75*
G02*
X145549999Y-75450000I249999J0D01*
G01*
X146450001Y-75450000D01*
G75*
G02*
X146700000Y-75699999I0J-249999D01*
G01*
X146700000Y-76350001D01*
G75*
G02*
X146450001Y-76600000I-249999J0D01*
G01*
G37*
%TD*%
%TO.C,R2*%
G36*
G01*
X146450001Y-82575000D02*
X145549999Y-82575000D01*
G75*
G02*
X145300000Y-82325001I0J249999D01*
G01*
X145300000Y-81674999D01*
G75*
G02*
X145549999Y-81425000I249999J0D01*
G01*
X146450001Y-81425000D01*
G75*
G02*
X146700000Y-81674999I0J-249999D01*
G01*
X146700000Y-82325001D01*
G75*
G02*
X146450001Y-82575000I-249999J0D01*
G01*
G37*
G36*
G01*
X146450001Y-84625000D02*
X145549999Y-84625000D01*
G75*
G02*
X145300000Y-84375001I0J249999D01*
G01*
X145300000Y-83724999D01*
G75*
G02*
X145549999Y-83475000I249999J0D01*
G01*
X146450001Y-83475000D01*
G75*
G02*
X146700000Y-83724999I0J-249999D01*
G01*
X146700000Y-84375001D01*
G75*
G02*
X146450001Y-84625000I-249999J0D01*
G01*
G37*
%TD*%
%TO.C,R1*%
G36*
G01*
X143450001Y-76575000D02*
X142549999Y-76575000D01*
G75*
G02*
X142300000Y-76325001I0J249999D01*
G01*
X142300000Y-75674999D01*
G75*
G02*
X142549999Y-75425000I249999J0D01*
G01*
X143450001Y-75425000D01*
G75*
G02*
X143700000Y-75674999I0J-249999D01*
G01*
X143700000Y-76325001D01*
G75*
G02*
X143450001Y-76575000I-249999J0D01*
G01*
G37*
G36*
G01*
X143450001Y-78625000D02*
X142549999Y-78625000D01*
G75*
G02*
X142300000Y-78375001I0J249999D01*
G01*
X142300000Y-77724999D01*
G75*
G02*
X142549999Y-77475000I249999J0D01*
G01*
X143450001Y-77475000D01*
G75*
G02*
X143700000Y-77724999I0J-249999D01*
G01*
X143700000Y-78375001D01*
G75*
G02*
X143450001Y-78625000I-249999J0D01*
G01*
G37*
%TD*%
%TO.C,C2*%
G36*
G01*
X151549999Y-79450000D02*
X152450001Y-79450000D01*
G75*
G02*
X152700000Y-79699999I0J-249999D01*
G01*
X152700000Y-80350001D01*
G75*
G02*
X152450001Y-80600000I-249999J0D01*
G01*
X151549999Y-80600000D01*
G75*
G02*
X151300000Y-80350001I0J249999D01*
G01*
X151300000Y-79699999D01*
G75*
G02*
X151549999Y-79450000I249999J0D01*
G01*
G37*
G36*
G01*
X151549999Y-77400000D02*
X152450001Y-77400000D01*
G75*
G02*
X152700000Y-77649999I0J-249999D01*
G01*
X152700000Y-78300001D01*
G75*
G02*
X152450001Y-78550000I-249999J0D01*
G01*
X151549999Y-78550000D01*
G75*
G02*
X151300000Y-78300001I0J249999D01*
G01*
X151300000Y-77649999D01*
G75*
G02*
X151549999Y-77400000I249999J0D01*
G01*
G37*
%TD*%
%TO.C,C1*%
G36*
G01*
X148549999Y-79450000D02*
X149450001Y-79450000D01*
G75*
G02*
X149700000Y-79699999I0J-249999D01*
G01*
X149700000Y-80350001D01*
G75*
G02*
X149450001Y-80600000I-249999J0D01*
G01*
X148549999Y-80600000D01*
G75*
G02*
X148300000Y-80350001I0J249999D01*
G01*
X148300000Y-79699999D01*
G75*
G02*
X148549999Y-79450000I249999J0D01*
G01*
G37*
G36*
G01*
X148549999Y-77400000D02*
X149450001Y-77400000D01*
G75*
G02*
X149700000Y-77649999I0J-249999D01*
G01*
X149700000Y-78300001D01*
G75*
G02*
X149450001Y-78550000I-249999J0D01*
G01*
X148549999Y-78550000D01*
G75*
G02*
X148300000Y-78300001I0J249999D01*
G01*
X148300000Y-77649999D01*
G75*
G02*
X148549999Y-77400000I249999J0D01*
G01*
G37*
%TD*%
D11*
%TO.C,TP1*%
X168800000Y-68000000D03*
G36*
G01*
X156025001Y-69275000D02*
X153974999Y-69275000D01*
G75*
G02*
X153725000Y-69025001I0J249999D01*
G01*
X153725000Y-66974999D01*
G75*
G02*
X153974999Y-66725000I249999J0D01*
G01*
X156025001Y-66725000D01*
G75*
G02*
X156275000Y-66974999I0J-249999D01*
G01*
X156275000Y-69025001D01*
G75*
G02*
X156025001Y-69275000I-249999J0D01*
G01*
G37*
%TD*%
D12*
%TO.C,k1*%
G36*
X125759755Y-87950961D02*
G01*
X125769134Y-87953806D01*
X125777779Y-87958427D01*
X125785355Y-87964645D01*
X125791573Y-87972221D01*
X125796194Y-87980866D01*
X125799039Y-87990245D01*
X125800000Y-88000000D01*
X125800000Y-92250000D01*
X125799039Y-92259755D01*
X125794721Y-92272361D01*
X125544721Y-92772361D01*
X125539500Y-92780656D01*
X125535355Y-92785355D01*
X125285355Y-93035355D01*
X125277779Y-93041573D01*
X125269134Y-93046194D01*
X125259755Y-93049039D01*
X125250000Y-93050000D01*
X121750000Y-93050000D01*
X121740245Y-93049039D01*
X121730866Y-93046194D01*
X121722221Y-93041573D01*
X121714645Y-93035355D01*
X121464645Y-92785355D01*
X121458427Y-92777779D01*
X121455279Y-92772361D01*
X121205279Y-92272361D01*
X121201776Y-92263206D01*
X121200000Y-92250000D01*
X121200000Y-88000000D01*
X121200961Y-87990245D01*
X121203806Y-87980866D01*
X121208427Y-87972221D01*
X121214645Y-87964645D01*
X121222221Y-87958427D01*
X121230866Y-87953806D01*
X121240245Y-87950961D01*
X121250000Y-87950000D01*
X125750000Y-87950000D01*
X125759755Y-87950961D01*
G37*
G36*
X161759755Y-87950961D02*
G01*
X161769134Y-87953806D01*
X161777779Y-87958427D01*
X161785355Y-87964645D01*
X161791573Y-87972221D01*
X161796194Y-87980866D01*
X161799039Y-87990245D01*
X161800000Y-88000000D01*
X161800000Y-92250000D01*
X161799039Y-92259755D01*
X161794721Y-92272361D01*
X161544721Y-92772361D01*
X161539500Y-92780656D01*
X161535355Y-92785355D01*
X161285355Y-93035355D01*
X161277779Y-93041573D01*
X161269134Y-93046194D01*
X161259755Y-93049039D01*
X161250000Y-93050000D01*
X157500000Y-93050000D01*
X157490245Y-93049039D01*
X157480866Y-93046194D01*
X157472221Y-93041573D01*
X157464645Y-93035355D01*
X157214645Y-92785355D01*
X157208427Y-92777779D01*
X157205279Y-92772361D01*
X156955279Y-92272361D01*
X156951776Y-92263206D01*
X156950000Y-92250000D01*
X156950000Y-88000000D01*
X156950961Y-87990245D01*
X156953806Y-87980866D01*
X156958427Y-87972221D01*
X156964645Y-87964645D01*
X156972221Y-87958427D01*
X156980866Y-87953806D01*
X156990245Y-87950961D01*
X157000000Y-87950000D01*
X161750000Y-87950000D01*
X161759755Y-87950961D01*
G37*
G36*
X143759755Y-87950961D02*
G01*
X143769134Y-87953806D01*
X143777779Y-87958427D01*
X143785355Y-87964645D01*
X143791573Y-87972221D01*
X143796194Y-87980866D01*
X143799039Y-87990245D01*
X143800000Y-88000000D01*
X143800000Y-92250000D01*
X143799039Y-92259755D01*
X143794721Y-92272361D01*
X143544721Y-92772361D01*
X143539500Y-92780656D01*
X143535355Y-92785355D01*
X143285355Y-93035355D01*
X143277779Y-93041573D01*
X143269134Y-93046194D01*
X143259755Y-93049039D01*
X143250000Y-93050000D01*
X139500000Y-93050000D01*
X139490245Y-93049039D01*
X139480866Y-93046194D01*
X139472221Y-93041573D01*
X139464645Y-93035355D01*
X139214645Y-92785355D01*
X139208427Y-92777779D01*
X139205279Y-92772361D01*
X138955279Y-92272361D01*
X138951776Y-92263206D01*
X138950000Y-92250000D01*
X138950000Y-88000000D01*
X138950961Y-87990245D01*
X138953806Y-87980866D01*
X138958427Y-87972221D01*
X138964645Y-87964645D01*
X138972221Y-87958427D01*
X138980866Y-87953806D01*
X138990245Y-87950961D01*
X139000000Y-87950000D01*
X143750000Y-87950000D01*
X143759755Y-87950961D01*
G37*
G36*
X119759755Y-87950961D02*
G01*
X119769134Y-87953806D01*
X119777779Y-87958427D01*
X119785355Y-87964645D01*
X119791573Y-87972221D01*
X119796194Y-87980866D01*
X119799039Y-87990245D01*
X119800000Y-88000000D01*
X119800000Y-92250000D01*
X119799039Y-92259755D01*
X119794721Y-92272361D01*
X119544721Y-92772361D01*
X119539500Y-92780656D01*
X119535355Y-92785355D01*
X119285355Y-93035355D01*
X119277779Y-93041573D01*
X119269134Y-93046194D01*
X119259755Y-93049039D01*
X119250000Y-93050000D01*
X115500000Y-93050000D01*
X115490245Y-93049039D01*
X115480866Y-93046194D01*
X115472221Y-93041573D01*
X115464645Y-93035355D01*
X115214645Y-92785355D01*
X115208427Y-92777779D01*
X115205279Y-92772361D01*
X114955279Y-92272361D01*
X114951776Y-92263206D01*
X114950000Y-92250000D01*
X114950000Y-88000000D01*
X114950961Y-87990245D01*
X114953806Y-87980866D01*
X114958427Y-87972221D01*
X114964645Y-87964645D01*
X114972221Y-87958427D01*
X114980866Y-87953806D01*
X114990245Y-87950961D01*
X115000000Y-87950000D01*
X119750000Y-87950000D01*
X119759755Y-87950961D01*
G37*
G36*
X168009755Y-87950961D02*
G01*
X168019134Y-87953806D01*
X168027779Y-87958427D01*
X168035355Y-87964645D01*
X168041573Y-87972221D01*
X168046194Y-87980866D01*
X168049039Y-87990245D01*
X168050000Y-88000000D01*
X168050000Y-92250000D01*
X168049039Y-92259755D01*
X168044721Y-92272361D01*
X167794721Y-92772361D01*
X167789500Y-92780656D01*
X167785355Y-92785355D01*
X167535355Y-93035355D01*
X167527779Y-93041573D01*
X167519134Y-93046194D01*
X167509755Y-93049039D01*
X167500000Y-93050000D01*
X163750000Y-93050000D01*
X163740245Y-93049039D01*
X163730866Y-93046194D01*
X163722221Y-93041573D01*
X163714645Y-93035355D01*
X163464645Y-92785355D01*
X163458427Y-92777779D01*
X163455279Y-92772361D01*
X163205279Y-92272361D01*
X163201776Y-92263206D01*
X163200000Y-92250000D01*
X163200000Y-88000000D01*
X163200961Y-87990245D01*
X163203806Y-87980866D01*
X163208427Y-87972221D01*
X163214645Y-87964645D01*
X163222221Y-87958427D01*
X163230866Y-87953806D01*
X163240245Y-87950961D01*
X163250000Y-87950000D01*
X168000000Y-87950000D01*
X168009755Y-87950961D01*
G37*
G36*
X150009755Y-87950961D02*
G01*
X150019134Y-87953806D01*
X150027779Y-87958427D01*
X150035355Y-87964645D01*
X150041573Y-87972221D01*
X150046194Y-87980866D01*
X150049039Y-87990245D01*
X150050000Y-88000000D01*
X150050000Y-92250000D01*
X150049039Y-92259755D01*
X150044721Y-92272361D01*
X149794721Y-92772361D01*
X149789500Y-92780656D01*
X149785355Y-92785355D01*
X149535355Y-93035355D01*
X149527779Y-93041573D01*
X149519134Y-93046194D01*
X149509755Y-93049039D01*
X149500000Y-93050000D01*
X145750000Y-93050000D01*
X145740245Y-93049039D01*
X145730866Y-93046194D01*
X145722221Y-93041573D01*
X145714645Y-93035355D01*
X145464645Y-92785355D01*
X145458427Y-92777779D01*
X145455279Y-92772361D01*
X145205279Y-92272361D01*
X145201776Y-92263206D01*
X145200000Y-92250000D01*
X145200000Y-88000000D01*
X145200961Y-87990245D01*
X145203806Y-87980866D01*
X145208427Y-87972221D01*
X145214645Y-87964645D01*
X145222221Y-87958427D01*
X145230866Y-87953806D01*
X145240245Y-87950961D01*
X145250000Y-87950000D01*
X150000000Y-87950000D01*
X150009755Y-87950961D01*
G37*
G36*
X132009755Y-87950961D02*
G01*
X132019134Y-87953806D01*
X132027779Y-87958427D01*
X132035355Y-87964645D01*
X132041573Y-87972221D01*
X132046194Y-87980866D01*
X132049039Y-87990245D01*
X132050000Y-88000000D01*
X132050000Y-92250000D01*
X132049039Y-92259755D01*
X132044721Y-92272361D01*
X131794721Y-92772361D01*
X131789500Y-92780656D01*
X131785355Y-92785355D01*
X131535355Y-93035355D01*
X131527779Y-93041573D01*
X131519134Y-93046194D01*
X131509755Y-93049039D01*
X131500000Y-93050000D01*
X127750000Y-93050000D01*
X127740245Y-93049039D01*
X127730866Y-93046194D01*
X127722221Y-93041573D01*
X127714645Y-93035355D01*
X127464645Y-92785355D01*
X127458427Y-92777779D01*
X127455279Y-92772361D01*
X127205279Y-92272361D01*
X127201776Y-92263206D01*
X127200000Y-92250000D01*
X127200000Y-88000000D01*
X127200961Y-87990245D01*
X127203806Y-87980866D01*
X127208427Y-87972221D01*
X127214645Y-87964645D01*
X127222221Y-87958427D01*
X127230866Y-87953806D01*
X127240245Y-87950961D01*
X127250000Y-87950000D01*
X132000000Y-87950000D01*
X132009755Y-87950961D01*
G37*
G36*
X108009755Y-87950961D02*
G01*
X108019134Y-87953806D01*
X108027779Y-87958427D01*
X108035355Y-87964645D01*
X108041573Y-87972221D01*
X108046194Y-87980866D01*
X108049039Y-87990245D01*
X108050000Y-88000000D01*
X108050000Y-92250000D01*
X108049039Y-92259755D01*
X108044721Y-92272361D01*
X107794721Y-92772361D01*
X107789500Y-92780656D01*
X107785355Y-92785355D01*
X107535355Y-93035355D01*
X107527779Y-93041573D01*
X107519134Y-93046194D01*
X107509755Y-93049039D01*
X107500000Y-93050000D01*
X103750000Y-93050000D01*
X103740245Y-93049039D01*
X103730866Y-93046194D01*
X103722221Y-93041573D01*
X103714645Y-93035355D01*
X103464645Y-92785355D01*
X103458427Y-92777779D01*
X103455279Y-92772361D01*
X103205279Y-92272361D01*
X103201776Y-92263206D01*
X103200000Y-92250000D01*
X103200000Y-88000000D01*
X103200961Y-87990245D01*
X103203806Y-87980866D01*
X103208427Y-87972221D01*
X103214645Y-87964645D01*
X103222221Y-87958427D01*
X103230866Y-87953806D01*
X103240245Y-87950961D01*
X103250000Y-87950000D01*
X108000000Y-87950000D01*
X108009755Y-87950961D01*
G37*
G36*
X101759755Y-87950961D02*
G01*
X101769134Y-87953806D01*
X101777779Y-87958427D01*
X101785355Y-87964645D01*
X101791573Y-87972221D01*
X101796194Y-87980866D01*
X101799039Y-87990245D01*
X101800000Y-88000000D01*
X101800000Y-92250000D01*
X101799039Y-92259755D01*
X101794721Y-92272361D01*
X101544721Y-92772361D01*
X101539500Y-92780656D01*
X101535355Y-92785355D01*
X101285355Y-93035355D01*
X101277779Y-93041573D01*
X101269134Y-93046194D01*
X101259755Y-93049039D01*
X101250000Y-93050000D01*
X97500000Y-93050000D01*
X97490245Y-93049039D01*
X97480866Y-93046194D01*
X97472221Y-93041573D01*
X97464645Y-93035355D01*
X97214645Y-92785355D01*
X97208427Y-92777779D01*
X97205279Y-92772361D01*
X96955279Y-92272361D01*
X96951776Y-92263206D01*
X96950000Y-92250000D01*
X96950000Y-88000000D01*
X96950961Y-87990245D01*
X96953806Y-87980866D01*
X96958427Y-87972221D01*
X96964645Y-87964645D01*
X96972221Y-87958427D01*
X96980866Y-87953806D01*
X96990245Y-87950961D01*
X97000000Y-87950000D01*
X101750000Y-87950000D01*
X101759755Y-87950961D01*
G37*
G36*
X162659755Y-87950961D02*
G01*
X162669134Y-87953806D01*
X162677779Y-87958427D01*
X162685355Y-87964645D01*
X162691573Y-87972221D01*
X162696194Y-87980866D01*
X162699039Y-87990245D01*
X162700000Y-88000000D01*
X162700000Y-92885660D01*
X162936693Y-93264369D01*
X163215139Y-93450000D01*
X165000000Y-93450000D01*
X165009755Y-93450961D01*
X165019134Y-93453806D01*
X165027779Y-93458427D01*
X165035355Y-93464645D01*
X165041573Y-93472221D01*
X165046194Y-93480866D01*
X165049039Y-93490245D01*
X165050000Y-93500000D01*
X165050000Y-97250000D01*
X165049039Y-97259755D01*
X165044721Y-97272361D01*
X164794721Y-97772361D01*
X164789500Y-97780656D01*
X164785355Y-97785355D01*
X164535355Y-98035355D01*
X164527779Y-98041573D01*
X164519134Y-98046194D01*
X164509755Y-98049039D01*
X164500000Y-98050000D01*
X160500000Y-98050000D01*
X160490245Y-98049039D01*
X160480866Y-98046194D01*
X160472221Y-98041573D01*
X160464645Y-98035355D01*
X160214645Y-97785355D01*
X160208427Y-97777779D01*
X160205279Y-97772361D01*
X159955279Y-97272361D01*
X159951776Y-97263206D01*
X159950000Y-97250000D01*
X159950000Y-93500000D01*
X159950961Y-93490245D01*
X159953806Y-93480866D01*
X159958427Y-93472221D01*
X159964645Y-93464645D01*
X159972221Y-93458427D01*
X159980866Y-93453806D01*
X159990245Y-93450961D01*
X160000000Y-93450000D01*
X161784861Y-93450000D01*
X162063307Y-93264369D01*
X162300000Y-92885660D01*
X162300000Y-88000000D01*
X162300961Y-87990245D01*
X162303806Y-87980866D01*
X162308427Y-87972221D01*
X162314645Y-87964645D01*
X162322221Y-87958427D01*
X162330866Y-87953806D01*
X162340245Y-87950961D01*
X162350000Y-87950000D01*
X162650000Y-87950000D01*
X162659755Y-87950961D01*
G37*
G36*
X166490245Y-98049039D02*
G01*
X166480866Y-98046194D01*
X166472221Y-98041573D01*
X166464645Y-98035355D01*
X166214645Y-97785355D01*
X166208427Y-97777779D01*
X166205279Y-97772361D01*
X165955279Y-97272361D01*
X165951776Y-97263206D01*
X165950000Y-97250000D01*
X165950000Y-93500000D01*
X165950961Y-93490245D01*
X165953806Y-93480866D01*
X165958427Y-93472221D01*
X165964645Y-93464645D01*
X165972221Y-93458427D01*
X165980866Y-93453806D01*
X165990245Y-93450961D01*
X166000000Y-93450000D01*
X167979290Y-93450000D01*
X168208907Y-93220383D01*
X168450000Y-92738197D01*
X168450000Y-88000000D01*
X168450961Y-87990245D01*
X168453806Y-87980866D01*
X168458427Y-87972221D01*
X168464645Y-87964645D01*
X168472221Y-87958427D01*
X168480866Y-87953806D01*
X168490245Y-87950961D01*
X168500000Y-87950000D01*
X171000000Y-87950000D01*
X171009755Y-87950961D01*
X171019134Y-87953806D01*
X171027779Y-87958427D01*
X171035355Y-87964645D01*
X171041573Y-87972221D01*
X171046194Y-87980866D01*
X171049039Y-87990245D01*
X171050000Y-88000000D01*
X171050000Y-97250000D01*
X171049039Y-97259755D01*
X171044721Y-97272361D01*
X170794721Y-97772361D01*
X170789500Y-97780656D01*
X170785355Y-97785355D01*
X170535355Y-98035355D01*
X170527779Y-98041573D01*
X170519134Y-98046194D01*
X170509755Y-98049039D01*
X170500000Y-98050000D01*
X166500000Y-98050000D01*
X166490245Y-98049039D01*
G37*
G36*
X156509755Y-87950961D02*
G01*
X156519134Y-87953806D01*
X156527779Y-87958427D01*
X156535355Y-87964645D01*
X156541573Y-87972221D01*
X156546194Y-87980866D01*
X156549039Y-87990245D01*
X156550000Y-88000000D01*
X156550000Y-92738197D01*
X156791093Y-93220383D01*
X157020710Y-93450000D01*
X159000000Y-93450000D01*
X159009755Y-93450961D01*
X159019134Y-93453806D01*
X159027779Y-93458427D01*
X159035355Y-93464645D01*
X159041573Y-93472221D01*
X159046194Y-93480866D01*
X159049039Y-93490245D01*
X159050000Y-93500000D01*
X159050000Y-97250000D01*
X159049039Y-97259755D01*
X159044721Y-97272361D01*
X158794721Y-97772361D01*
X158789500Y-97780656D01*
X158785355Y-97785355D01*
X158535355Y-98035355D01*
X158527779Y-98041573D01*
X158519134Y-98046194D01*
X158509755Y-98049039D01*
X158500000Y-98050000D01*
X154500000Y-98050000D01*
X154490245Y-98049039D01*
X154480866Y-98046194D01*
X154472221Y-98041573D01*
X154464645Y-98035355D01*
X154214645Y-97785355D01*
X154208427Y-97777779D01*
X154205279Y-97772361D01*
X153955279Y-97272361D01*
X153951776Y-97263206D01*
X153950000Y-97250000D01*
X153950000Y-88000000D01*
X153950961Y-87990245D01*
X153953806Y-87980866D01*
X153958427Y-87972221D01*
X153964645Y-87964645D01*
X153972221Y-87958427D01*
X153980866Y-87953806D01*
X153990245Y-87950961D01*
X154000000Y-87950000D01*
X156500000Y-87950000D01*
X156509755Y-87950961D01*
G37*
G36*
X144659755Y-87950961D02*
G01*
X144669134Y-87953806D01*
X144677779Y-87958427D01*
X144685355Y-87964645D01*
X144691573Y-87972221D01*
X144696194Y-87980866D01*
X144699039Y-87990245D01*
X144700000Y-88000000D01*
X144700000Y-92885660D01*
X144936693Y-93264369D01*
X145215139Y-93450000D01*
X147000000Y-93450000D01*
X147009755Y-93450961D01*
X147019134Y-93453806D01*
X147027779Y-93458427D01*
X147035355Y-93464645D01*
X147041573Y-93472221D01*
X147046194Y-93480866D01*
X147049039Y-93490245D01*
X147050000Y-93500000D01*
X147050000Y-97250000D01*
X147049039Y-97259755D01*
X147044721Y-97272361D01*
X146794721Y-97772361D01*
X146789500Y-97780656D01*
X146785355Y-97785355D01*
X146535355Y-98035355D01*
X146527779Y-98041573D01*
X146519134Y-98046194D01*
X146509755Y-98049039D01*
X146500000Y-98050000D01*
X142500000Y-98050000D01*
X142490245Y-98049039D01*
X142480866Y-98046194D01*
X142472221Y-98041573D01*
X142464645Y-98035355D01*
X142214645Y-97785355D01*
X142208427Y-97777779D01*
X142205279Y-97772361D01*
X141955279Y-97272361D01*
X141951776Y-97263206D01*
X141950000Y-97250000D01*
X141950000Y-93500000D01*
X141950961Y-93490245D01*
X141953806Y-93480866D01*
X141958427Y-93472221D01*
X141964645Y-93464645D01*
X141972221Y-93458427D01*
X141980866Y-93453806D01*
X141990245Y-93450961D01*
X142000000Y-93450000D01*
X143784861Y-93450000D01*
X144063307Y-93264369D01*
X144300000Y-92885660D01*
X144300000Y-88000000D01*
X144300961Y-87990245D01*
X144303806Y-87980866D01*
X144308427Y-87972221D01*
X144314645Y-87964645D01*
X144322221Y-87958427D01*
X144330866Y-87953806D01*
X144340245Y-87950961D01*
X144350000Y-87950000D01*
X144650000Y-87950000D01*
X144659755Y-87950961D01*
G37*
G36*
X148490245Y-98049039D02*
G01*
X148480866Y-98046194D01*
X148472221Y-98041573D01*
X148464645Y-98035355D01*
X148214645Y-97785355D01*
X148208427Y-97777779D01*
X148205279Y-97772361D01*
X147955279Y-97272361D01*
X147951776Y-97263206D01*
X147950000Y-97250000D01*
X147950000Y-93500000D01*
X147950961Y-93490245D01*
X147953806Y-93480866D01*
X147958427Y-93472221D01*
X147964645Y-93464645D01*
X147972221Y-93458427D01*
X147980866Y-93453806D01*
X147990245Y-93450961D01*
X148000000Y-93450000D01*
X149979290Y-93450000D01*
X150208907Y-93220383D01*
X150450000Y-92738197D01*
X150450000Y-88000000D01*
X150450961Y-87990245D01*
X150453806Y-87980866D01*
X150458427Y-87972221D01*
X150464645Y-87964645D01*
X150472221Y-87958427D01*
X150480866Y-87953806D01*
X150490245Y-87950961D01*
X150500000Y-87950000D01*
X153000000Y-87950000D01*
X153009755Y-87950961D01*
X153019134Y-87953806D01*
X153027779Y-87958427D01*
X153035355Y-87964645D01*
X153041573Y-87972221D01*
X153046194Y-87980866D01*
X153049039Y-87990245D01*
X153050000Y-88000000D01*
X153050000Y-97250000D01*
X153049039Y-97259755D01*
X153044721Y-97272361D01*
X152794721Y-97772361D01*
X152789500Y-97780656D01*
X152785355Y-97785355D01*
X152535355Y-98035355D01*
X152527779Y-98041573D01*
X152519134Y-98046194D01*
X152509755Y-98049039D01*
X152500000Y-98050000D01*
X148500000Y-98050000D01*
X148490245Y-98049039D01*
G37*
G36*
X138509755Y-87950961D02*
G01*
X138519134Y-87953806D01*
X138527779Y-87958427D01*
X138535355Y-87964645D01*
X138541573Y-87972221D01*
X138546194Y-87980866D01*
X138549039Y-87990245D01*
X138550000Y-88000000D01*
X138550000Y-92738197D01*
X138791093Y-93220383D01*
X139020710Y-93450000D01*
X141000000Y-93450000D01*
X141009755Y-93450961D01*
X141019134Y-93453806D01*
X141027779Y-93458427D01*
X141035355Y-93464645D01*
X141041573Y-93472221D01*
X141046194Y-93480866D01*
X141049039Y-93490245D01*
X141050000Y-93500000D01*
X141050000Y-97250000D01*
X141049039Y-97259755D01*
X141044721Y-97272361D01*
X140794721Y-97772361D01*
X140789500Y-97780656D01*
X140785355Y-97785355D01*
X140535355Y-98035355D01*
X140527779Y-98041573D01*
X140519134Y-98046194D01*
X140509755Y-98049039D01*
X140500000Y-98050000D01*
X136500000Y-98050000D01*
X136490245Y-98049039D01*
X136480866Y-98046194D01*
X136472221Y-98041573D01*
X136464645Y-98035355D01*
X136214645Y-97785355D01*
X136208427Y-97777779D01*
X136205279Y-97772361D01*
X135955279Y-97272361D01*
X135951776Y-97263206D01*
X135950000Y-97250000D01*
X135950000Y-88000000D01*
X135950961Y-87990245D01*
X135953806Y-87980866D01*
X135958427Y-87972221D01*
X135964645Y-87964645D01*
X135972221Y-87958427D01*
X135980866Y-87953806D01*
X135990245Y-87950961D01*
X136000000Y-87950000D01*
X138500000Y-87950000D01*
X138509755Y-87950961D01*
G37*
G36*
X126659755Y-87950961D02*
G01*
X126669134Y-87953806D01*
X126677779Y-87958427D01*
X126685355Y-87964645D01*
X126691573Y-87972221D01*
X126696194Y-87980866D01*
X126699039Y-87990245D01*
X126700000Y-88000000D01*
X126700000Y-92885660D01*
X126936693Y-93264369D01*
X127215139Y-93450000D01*
X129000000Y-93450000D01*
X129009755Y-93450961D01*
X129019134Y-93453806D01*
X129027779Y-93458427D01*
X129035355Y-93464645D01*
X129041573Y-93472221D01*
X129046194Y-93480866D01*
X129049039Y-93490245D01*
X129050000Y-93500000D01*
X129050000Y-97250000D01*
X129049039Y-97259755D01*
X129044721Y-97272361D01*
X128794721Y-97772361D01*
X128789500Y-97780656D01*
X128785355Y-97785355D01*
X128535355Y-98035355D01*
X128527779Y-98041573D01*
X128519134Y-98046194D01*
X128509755Y-98049039D01*
X128500000Y-98050000D01*
X124500000Y-98050000D01*
X124490245Y-98049039D01*
X124480866Y-98046194D01*
X124472221Y-98041573D01*
X124464645Y-98035355D01*
X124214645Y-97785355D01*
X124208427Y-97777779D01*
X124205279Y-97772361D01*
X123955279Y-97272361D01*
X123951776Y-97263206D01*
X123950000Y-97250000D01*
X123950000Y-93500000D01*
X123950961Y-93490245D01*
X123953806Y-93480866D01*
X123958427Y-93472221D01*
X123964645Y-93464645D01*
X123972221Y-93458427D01*
X123980866Y-93453806D01*
X123990245Y-93450961D01*
X124000000Y-93450000D01*
X125784861Y-93450000D01*
X126063307Y-93264369D01*
X126300000Y-92885660D01*
X126300000Y-88000000D01*
X126300961Y-87990245D01*
X126303806Y-87980866D01*
X126308427Y-87972221D01*
X126314645Y-87964645D01*
X126322221Y-87958427D01*
X126330866Y-87953806D01*
X126340245Y-87950961D01*
X126350000Y-87950000D01*
X126650000Y-87950000D01*
X126659755Y-87950961D01*
G37*
G36*
X120659755Y-87950961D02*
G01*
X120669134Y-87953806D01*
X120677779Y-87958427D01*
X120685355Y-87964645D01*
X120691573Y-87972221D01*
X120696194Y-87980866D01*
X120699039Y-87990245D01*
X120700000Y-88000000D01*
X120700000Y-92885660D01*
X120936693Y-93264369D01*
X121215139Y-93450000D01*
X123000000Y-93450000D01*
X123009755Y-93450961D01*
X123019134Y-93453806D01*
X123027779Y-93458427D01*
X123035355Y-93464645D01*
X123041573Y-93472221D01*
X123046194Y-93480866D01*
X123049039Y-93490245D01*
X123050000Y-93500000D01*
X123050000Y-97250000D01*
X123049039Y-97259755D01*
X123044721Y-97272361D01*
X122794721Y-97772361D01*
X122789500Y-97780656D01*
X122785355Y-97785355D01*
X122535355Y-98035355D01*
X122527779Y-98041573D01*
X122519134Y-98046194D01*
X122509755Y-98049039D01*
X122500000Y-98050000D01*
X118500000Y-98050000D01*
X118490245Y-98049039D01*
X118480866Y-98046194D01*
X118472221Y-98041573D01*
X118464645Y-98035355D01*
X118214645Y-97785355D01*
X118208427Y-97777779D01*
X118205279Y-97772361D01*
X117955279Y-97272361D01*
X117951776Y-97263206D01*
X117950000Y-97250000D01*
X117950000Y-93500000D01*
X117950961Y-93490245D01*
X117953806Y-93480866D01*
X117958427Y-93472221D01*
X117964645Y-93464645D01*
X117972221Y-93458427D01*
X117980866Y-93453806D01*
X117990245Y-93450961D01*
X118000000Y-93450000D01*
X119784861Y-93450000D01*
X120063307Y-93264369D01*
X120300000Y-92885660D01*
X120300000Y-88000000D01*
X120300961Y-87990245D01*
X120303806Y-87980866D01*
X120308427Y-87972221D01*
X120314645Y-87964645D01*
X120322221Y-87958427D01*
X120330866Y-87953806D01*
X120340245Y-87950961D01*
X120350000Y-87950000D01*
X120650000Y-87950000D01*
X120659755Y-87950961D01*
G37*
G36*
X130490245Y-98049039D02*
G01*
X130480866Y-98046194D01*
X130472221Y-98041573D01*
X130464645Y-98035355D01*
X130214645Y-97785355D01*
X130208427Y-97777779D01*
X130205279Y-97772361D01*
X129955279Y-97272361D01*
X129951776Y-97263206D01*
X129950000Y-97250000D01*
X129950000Y-93500000D01*
X129950961Y-93490245D01*
X129953806Y-93480866D01*
X129958427Y-93472221D01*
X129964645Y-93464645D01*
X129972221Y-93458427D01*
X129980866Y-93453806D01*
X129990245Y-93450961D01*
X130000000Y-93450000D01*
X131979290Y-93450000D01*
X132208907Y-93220383D01*
X132450000Y-92738197D01*
X132450000Y-88000000D01*
X132450961Y-87990245D01*
X132453806Y-87980866D01*
X132458427Y-87972221D01*
X132464645Y-87964645D01*
X132472221Y-87958427D01*
X132480866Y-87953806D01*
X132490245Y-87950961D01*
X132500000Y-87950000D01*
X135000000Y-87950000D01*
X135009755Y-87950961D01*
X135019134Y-87953806D01*
X135027779Y-87958427D01*
X135035355Y-87964645D01*
X135041573Y-87972221D01*
X135046194Y-87980866D01*
X135049039Y-87990245D01*
X135050000Y-88000000D01*
X135050000Y-97250000D01*
X135049039Y-97259755D01*
X135044721Y-97272361D01*
X134794721Y-97772361D01*
X134789500Y-97780656D01*
X134785355Y-97785355D01*
X134535355Y-98035355D01*
X134527779Y-98041573D01*
X134519134Y-98046194D01*
X134509755Y-98049039D01*
X134500000Y-98050000D01*
X130500000Y-98050000D01*
X130490245Y-98049039D01*
G37*
G36*
X114509755Y-87950961D02*
G01*
X114519134Y-87953806D01*
X114527779Y-87958427D01*
X114535355Y-87964645D01*
X114541573Y-87972221D01*
X114546194Y-87980866D01*
X114549039Y-87990245D01*
X114550000Y-88000000D01*
X114550000Y-92738197D01*
X114791093Y-93220383D01*
X115020710Y-93450000D01*
X117000000Y-93450000D01*
X117009755Y-93450961D01*
X117019134Y-93453806D01*
X117027779Y-93458427D01*
X117035355Y-93464645D01*
X117041573Y-93472221D01*
X117046194Y-93480866D01*
X117049039Y-93490245D01*
X117050000Y-93500000D01*
X117050000Y-97250000D01*
X117049039Y-97259755D01*
X117044721Y-97272361D01*
X116794721Y-97772361D01*
X116789500Y-97780656D01*
X116785355Y-97785355D01*
X116535355Y-98035355D01*
X116527779Y-98041573D01*
X116519134Y-98046194D01*
X116509755Y-98049039D01*
X116500000Y-98050000D01*
X112500000Y-98050000D01*
X112490245Y-98049039D01*
X112480866Y-98046194D01*
X112472221Y-98041573D01*
X112464645Y-98035355D01*
X112214645Y-97785355D01*
X112208427Y-97777779D01*
X112205279Y-97772361D01*
X111955279Y-97272361D01*
X111951776Y-97263206D01*
X111950000Y-97250000D01*
X111950000Y-88000000D01*
X111950961Y-87990245D01*
X111953806Y-87980866D01*
X111958427Y-87972221D01*
X111964645Y-87964645D01*
X111972221Y-87958427D01*
X111980866Y-87953806D01*
X111990245Y-87950961D01*
X112000000Y-87950000D01*
X114500000Y-87950000D01*
X114509755Y-87950961D01*
G37*
G36*
X102659755Y-87950961D02*
G01*
X102669134Y-87953806D01*
X102677779Y-87958427D01*
X102685355Y-87964645D01*
X102691573Y-87972221D01*
X102696194Y-87980866D01*
X102699039Y-87990245D01*
X102700000Y-88000000D01*
X102700000Y-92885660D01*
X102936693Y-93264369D01*
X103215139Y-93450000D01*
X105000000Y-93450000D01*
X105009755Y-93450961D01*
X105019134Y-93453806D01*
X105027779Y-93458427D01*
X105035355Y-93464645D01*
X105041573Y-93472221D01*
X105046194Y-93480866D01*
X105049039Y-93490245D01*
X105050000Y-93500000D01*
X105050000Y-97250000D01*
X105049039Y-97259755D01*
X105044721Y-97272361D01*
X104794721Y-97772361D01*
X104789500Y-97780656D01*
X104785355Y-97785355D01*
X104535355Y-98035355D01*
X104527779Y-98041573D01*
X104519134Y-98046194D01*
X104509755Y-98049039D01*
X104500000Y-98050000D01*
X100500000Y-98050000D01*
X100490245Y-98049039D01*
X100480866Y-98046194D01*
X100472221Y-98041573D01*
X100464645Y-98035355D01*
X100214645Y-97785355D01*
X100208427Y-97777779D01*
X100205279Y-97772361D01*
X99955279Y-97272361D01*
X99951776Y-97263206D01*
X99950000Y-97250000D01*
X99950000Y-93500000D01*
X99950961Y-93490245D01*
X99953806Y-93480866D01*
X99958427Y-93472221D01*
X99964645Y-93464645D01*
X99972221Y-93458427D01*
X99980866Y-93453806D01*
X99990245Y-93450961D01*
X100000000Y-93450000D01*
X101784861Y-93450000D01*
X102063307Y-93264369D01*
X102300000Y-92885660D01*
X102300000Y-88000000D01*
X102300961Y-87990245D01*
X102303806Y-87980866D01*
X102308427Y-87972221D01*
X102314645Y-87964645D01*
X102322221Y-87958427D01*
X102330866Y-87953806D01*
X102340245Y-87950961D01*
X102350000Y-87950000D01*
X102650000Y-87950000D01*
X102659755Y-87950961D01*
G37*
G36*
X106490245Y-98049039D02*
G01*
X106480866Y-98046194D01*
X106472221Y-98041573D01*
X106464645Y-98035355D01*
X106214645Y-97785355D01*
X106208427Y-97777779D01*
X106205279Y-97772361D01*
X105955279Y-97272361D01*
X105951776Y-97263206D01*
X105950000Y-97250000D01*
X105950000Y-93500000D01*
X105950961Y-93490245D01*
X105953806Y-93480866D01*
X105958427Y-93472221D01*
X105964645Y-93464645D01*
X105972221Y-93458427D01*
X105980866Y-93453806D01*
X105990245Y-93450961D01*
X106000000Y-93450000D01*
X107979290Y-93450000D01*
X108208907Y-93220383D01*
X108450000Y-92738197D01*
X108450000Y-88000000D01*
X108450961Y-87990245D01*
X108453806Y-87980866D01*
X108458427Y-87972221D01*
X108464645Y-87964645D01*
X108472221Y-87958427D01*
X108480866Y-87953806D01*
X108490245Y-87950961D01*
X108500000Y-87950000D01*
X111000000Y-87950000D01*
X111009755Y-87950961D01*
X111019134Y-87953806D01*
X111027779Y-87958427D01*
X111035355Y-87964645D01*
X111041573Y-87972221D01*
X111046194Y-87980866D01*
X111049039Y-87990245D01*
X111050000Y-88000000D01*
X111050000Y-97250000D01*
X111049039Y-97259755D01*
X111044721Y-97272361D01*
X110794721Y-97772361D01*
X110789500Y-97780656D01*
X110785355Y-97785355D01*
X110535355Y-98035355D01*
X110527779Y-98041573D01*
X110519134Y-98046194D01*
X110509755Y-98049039D01*
X110500000Y-98050000D01*
X106500000Y-98050000D01*
X106490245Y-98049039D01*
G37*
G36*
X96509755Y-87950961D02*
G01*
X96519134Y-87953806D01*
X96527779Y-87958427D01*
X96535355Y-87964645D01*
X96541573Y-87972221D01*
X96546194Y-87980866D01*
X96549039Y-87990245D01*
X96550000Y-88000000D01*
X96550000Y-92738197D01*
X96791093Y-93220383D01*
X97020710Y-93450000D01*
X99000000Y-93450000D01*
X99009755Y-93450961D01*
X99019134Y-93453806D01*
X99027779Y-93458427D01*
X99035355Y-93464645D01*
X99041573Y-93472221D01*
X99046194Y-93480866D01*
X99049039Y-93490245D01*
X99050000Y-93500000D01*
X99050000Y-97250000D01*
X99049039Y-97259755D01*
X99044721Y-97272361D01*
X98794721Y-97772361D01*
X98789500Y-97780656D01*
X98785355Y-97785355D01*
X98535355Y-98035355D01*
X98527779Y-98041573D01*
X98519134Y-98046194D01*
X98509755Y-98049039D01*
X98500000Y-98050000D01*
X94500000Y-98050000D01*
X94490245Y-98049039D01*
X94480866Y-98046194D01*
X94472221Y-98041573D01*
X94464645Y-98035355D01*
X94214645Y-97785355D01*
X94208427Y-97777779D01*
X94205279Y-97772361D01*
X93955279Y-97272361D01*
X93951776Y-97263206D01*
X93950000Y-97250000D01*
X93950000Y-88000000D01*
X93950961Y-87990245D01*
X93953806Y-87980866D01*
X93958427Y-87972221D01*
X93964645Y-87964645D01*
X93972221Y-87958427D01*
X93980866Y-87953806D01*
X93990245Y-87950961D01*
X94000000Y-87950000D01*
X96500000Y-87950000D01*
X96509755Y-87950961D01*
G37*
%TD*%
D13*
%TO.C,H1*%
X95000000Y-82000000D03*
%TD*%
D12*
%TO.C,SW1*%
G36*
X99626345Y-66818020D02*
G01*
X98530330Y-67914035D01*
X97823223Y-67206928D01*
X98919238Y-66110913D01*
X99626345Y-66818020D01*
G37*
G36*
X101889087Y-69080762D02*
G01*
X100793072Y-70176777D01*
X100085965Y-69469670D01*
X101181980Y-68373655D01*
X101889087Y-69080762D01*
G37*
G36*
X98176777Y-72793072D02*
G01*
X97080762Y-73889087D01*
X96373655Y-73181980D01*
X97469670Y-72085965D01*
X98176777Y-72793072D01*
G37*
G36*
X95914035Y-70530330D02*
G01*
X94818020Y-71626345D01*
X94110913Y-70919238D01*
X95206928Y-69823223D01*
X95914035Y-70530330D01*
G37*
%TD*%
D14*
%TO.C,VR2*%
X129000000Y-66500000D03*
X139000000Y-69000000D03*
X129000000Y-71500000D03*
D15*
X134000000Y-69000000D03*
%TD*%
D14*
%TO.C,VR1*%
X121000000Y-71500000D03*
X111000000Y-69000000D03*
X121000000Y-66500000D03*
D15*
X116000000Y-69000000D03*
%TD*%
M02*
